<svg width="160" height="44" viewBox="0 0 160 44" fill="none" xmlns="http://www.w3.org/2000/svg">
<path fill-rule="evenodd" clip-rule="evenodd" d="M49.5303 2.31676C55.817 -0.257707 59.1887 0.589382 59.6455 4.86632C59.8199 10.4139 57.3866 17.3732 52.3207 25.7527C47.3545 34.29 43.2104 39.5137 39.8885 41.4321C40.254 41.1082 40.6028 40.7677 40.9516 40.4272H40.9598L40.9682 40.4023C48.2348 31.1591 53.6744 20.5207 54.6876 8.65328V8.62837C54.6959 6.61031 54.3305 4.06905 52.4619 2.89808C51.5899 2.34996 50.5684 2.20879 49.522 2.30845" fill="#52A5B1"/>
<path fill-rule="evenodd" clip-rule="evenodd" d="M10.656 2.2753C4.97554 -0.157987 1.56231 0.165916 0.399645 3.07257C0.399645 3.07257 0.399645 3.07256 0.399645 3.08086C0.208636 3.56254 0.0840389 4.11895 0.00929625 4.74181C-0.165103 10.2894 2.11039 17.6225 7.16798 25.9937C11.7107 33.8084 15.5641 38.8411 18.7365 41.1166C18.7199 41.1 18.7116 41.0916 18.695 41.075C17.8313 40.1366 17.0257 39.14 16.2617 38.1352V38.1185C13.8533 34.3233 11.6027 30.3868 9.69265 26.3092C8.09814 22.9126 6.71953 19.3665 5.77279 15.7373C4.86757 12.2493 4.18658 7.66507 6.08837 4.3764L6.09668 4.35149C6.66971 3.55423 7.3922 2.89818 8.30572 2.53277C9.06976 2.2338 9.86702 2.17565 10.6477 2.28361" fill="#52A5B1"/>
<path fill-rule="evenodd" clip-rule="evenodd" d="M35.8276 10.2976C42.0977 6.14523 45.2285 4.06076 45.2285 4.06076C50.801 1.16241 54.4385 2.45795 54.4053 8.65328C53.5001 19.2916 48.9491 29.822 40.744 40.2528C36.6664 44.3055 34.2663 44.5297 33.5355 40.9089C35.2878 43.0349 37.3639 42.3788 39.764 38.9407C46.2583 26.4503 49.4307 16.1358 49.273 7.9972C42.0644 12.6645 38.4519 14.9981 38.4519 14.9981C32.896 18.6023 27.282 18.785 21.6265 15.5462C14.2685 10.5135 10.5895 8.00551 10.5895 8.00551C10.1161 12.8555 11.2871 18.9428 14.0858 26.2676C15.9377 31.6408 17.9059 35.9011 19.9904 39.0569C22.5068 43.093 24.5166 43.6328 26.0031 40.7013C24.9899 45.8751 21.8175 44.9616 16.4942 37.969C11.2456 29.7058 7.71605 22.2647 6.03849 15.6625C4.81769 11.1198 4.75959 7.22485 6.32919 4.5092C7.79082 2.45793 9.867 1.98457 12.5577 3.0891C19.6998 7.46569 23.2708 9.64983 23.2708 9.64983C27.5062 13.0714 31.7001 13.2873 35.8359 10.3059" fill="white"/>
<path fill-rule="evenodd" clip-rule="evenodd" d="M130.908 31.7821H127.587V29.2823C127.587 28.8505 127.404 28.6263 127.022 28.6263C126.64 28.6263 126.44 28.8422 126.44 29.2823V39.0321C126.44 39.4806 126.64 39.7048 127.022 39.7048C127.404 39.7048 127.587 39.4806 127.587 39.0321V35.7434H130.908V39.5968C130.908 41.3906 129.629 42.4454 127.063 42.4454C124.497 42.4454 123.119 41.5152 123.119 39.6466V28.618C123.119 26.7494 124.431 25.8193 127.063 25.8193C129.696 25.8193 130.908 26.7162 130.908 28.5017V31.7821ZM118.169 42.2627H114.847V26.2179H118.169V42.2627ZM109.366 42.2627H106.077V29.1412C106.077 28.7425 105.853 28.5349 105.471 28.5349C105.089 28.5349 104.707 28.7259 104.707 29.1162V42.2627H101.576V26.0684H104.898V26.5169C105.338 26.1597 105.803 25.9771 106.733 25.9771C107.331 25.9771 107.888 26.1349 108.394 26.4587C108.901 26.7743 109.001 27.2477 109.017 27.8622L109.366 42.2627ZM96.178 42.2627H93.0471V26.0352H96.178V42.2627ZM79.3194 31.6077H75.9726V28.809C75.9726 28.0698 74.5276 28.1197 74.5276 28.809V39.3809C74.5276 40.0702 75.9726 39.7546 75.9726 39.3809V35.6604H79.3194V39.8293C79.3194 40.6017 78.9291 41.2328 78.1484 41.6979C77.3678 42.1713 76.4875 42.4038 75.4992 42.4038C72.659 42.4038 71.2389 41.4239 71.2389 39.4556V28.9169C71.2389 26.7909 72.659 25.7362 75.4992 25.7362C78.0405 25.7362 79.3111 26.7079 79.3111 28.6346V31.6077H79.3194ZM88.1224 39.4141C87.292 39.4141 87.3501 39.1151 87.3501 38.3594V25.8774H84.4766V39.9789C84.8337 42.2793 86.4781 42.2709 88.1224 42.2709V39.4141ZM135.883 36.549H139.205V38.9989C139.205 39.5304 139.396 39.7961 139.778 39.7961C140.16 39.7961 140.774 39.2895 140.774 38.2764C140.774 36.9393 140.583 36.0092 140.093 35.677C138.391 34.5475 136.896 33.8665 136.539 33.443C136.182 33.0195 136.008 32.38 136.008 31.5412V29.4069C136.008 27.1729 137.295 26.0601 139.869 26.0601C142.444 26.0601 143.631 27.1314 143.631 29.2657V31.4665H140.816L140.833 30.4948C140.857 28.6844 140.243 28.5183 139.836 28.5183C139.429 28.5183 139.213 28.9336 139.213 29.7557C139.213 30.5779 139.305 31.2589 139.487 31.699C139.67 32.1392 140.683 32.8866 142.527 33.9579C143.291 34.5974 143.681 35.4611 143.681 36.5324V38.9075C143.681 41.1415 142.369 42.2543 139.745 42.2543C137.12 42.2543 135.891 41.183 135.891 39.0404V36.5407L135.883 36.549Z" fill="white"/>
<path fill-rule="evenodd" clip-rule="evenodd" d="M96.0452 20.8114H93.1137V20.2716C92.8645 20.7533 92.1503 21.0024 90.9877 21.0024C89.1772 21.0024 88.272 20.2799 88.272 18.8349V13.2375C88.272 10.8042 89.252 9.55849 91.1371 9.59171C92.0008 9.60832 92.7233 10.5633 92.7233 10.3308V6.90096C92.7233 6.4525 92.5323 6.21996 92.1503 6.21996C91.7101 6.21996 91.5025 6.7764 91.5025 7.87262C91.5025 8.07193 91.5025 8.3626 91.5357 8.75292C91.5607 9.14324 91.5856 8.67817 91.5856 8.87749H88.3965V6.87604C88.3965 5.01578 89.717 4.07735 92.3496 4.07735C94.8161 4.07735 96.0452 5.04901 96.0452 6.99232V20.8114ZM92.7316 18.0708V12.3821C92.0506 12.108 91.5856 12.598 91.5856 13.1046V18.0708C91.5856 18.4861 91.7849 18.702 92.1835 18.702C92.5489 18.702 92.7316 18.4861 92.7316 18.0708ZM101.028 15.2638H104.342V17.8134C104.342 18.3698 104.533 18.6439 104.915 18.6439C105.297 18.6439 105.911 18.1207 105.911 17.066C105.911 15.6708 105.72 14.7074 105.23 14.3669C103.536 13.1877 102.041 12.4817 101.684 12.0416C101.327 11.6014 101.153 10.9371 101.153 10.0568V7.83939C101.153 5.51407 102.432 4.35971 105.006 4.35971C107.58 4.35971 108.76 5.47253 108.76 7.6982V9.98201H105.953L105.969 8.97714C105.994 7.09196 105.38 6.91758 104.973 6.91758C104.566 6.91758 104.35 7.34942 104.35 8.20481C104.35 9.06019 104.441 9.77439 104.624 10.2229C104.807 10.6796 105.812 11.4603 107.664 12.5731C108.428 13.2458 108.81 14.1344 108.81 15.2472V17.722C108.81 20.0474 107.506 21.2017 104.89 21.2017C102.274 21.2017 101.045 20.0889 101.045 17.8549V15.2555L101.028 15.2638ZM114.565 19.6072C114.216 19.1837 114.125 18.2618 114.125 16.9497V4.21854H117.247V6.99232H120.86V9.01037H117.247V17.4314C117.247 18.4944 118.792 19.383 118.792 16.9746V14.1427H121.723V18.6439C121.723 19.466 120.378 20.7782 119.44 20.9858C117.945 21.318 115.769 21.0605 114.565 19.5989V19.6072ZM134.903 13.6942H130.468V17.9047C130.468 18.3698 130.651 18.6023 131.033 18.6023C131.415 18.6023 131.589 18.3698 131.589 17.9047V15.7538H134.903V18.0376C134.903 19.8979 133.608 21.3512 131.016 21.3512C128.425 21.3512 127.163 20.1138 127.163 18.1705V7.08366C127.163 5.14035 128.45 4.16869 131.016 4.16869C133.583 4.16869 134.903 5.09884 134.903 6.96741V13.6859V13.6942ZM131.589 11.6264V7.58195C131.589 7.13349 131.407 6.90096 131.033 6.90096C130.659 6.90096 130.468 7.13349 130.468 7.58195V11.6264H131.589ZM147.759 10.9869H144.445V7.13349C144.445 6.71825 144.254 6.50234 143.872 6.50234C143.49 6.50234 143.299 6.70164 143.299 7.10857V21.1602H139.986V4.34311H143.299V4.86631C143.739 4.4926 144.42 4.30988 145.35 4.30988C146.007 4.30988 146.58 4.49258 147.045 4.84968C147.518 5.20679 147.759 5.68846 147.759 6.2781V10.9952V10.9869ZM154.162 16.1856C152.426 8.24632 151.571 4.27666 151.571 4.27666C153.871 4.20191 155.009 4.1604 155.009 4.1604C155.54 9.69966 155.814 12.4651 155.814 12.4651C156.429 6.95079 156.736 4.20192 156.736 4.20192C159.086 4.15209 160 4.12718 160 4.12718C158.032 12.1412 157.309 16.1524 157.309 16.1524H157.268V20.936H154.162V16.194V16.1856ZM82.0601 20.5456V3.84482H78.2315L76.8696 13.6527L75.3 3.84482H71.6376V20.5456H73.7138V10.9952L74.0128 10.9703L75.8647 20.5539H77.7166L79.3361 10.9703L79.6434 10.9952V20.5539H82.0683L82.0601 20.5456Z" fill="white"/>
</svg>
