<svg width="60" height="44" viewBox="0 0 60 44" fill="none" xmlns="http://www.w3.org/2000/svg">
<path fill-rule="evenodd" clip-rule="evenodd" d="M49.5305 1.66722C55.8171 -0.907243 59.1889 -0.0601542 59.6456 4.21679C59.82 9.76435 57.3867 16.7237 52.3208 25.1032C47.3546 33.6405 43.2106 38.8641 39.8887 40.7825C40.2541 40.4587 40.6029 40.1181 40.9517 39.7776H40.96L40.9683 39.7527C48.2349 30.5096 53.6745 19.8712 54.6877 8.00374V7.97883C54.696 5.96078 54.3306 3.41951 52.4621 2.24854C51.5901 1.70043 50.5685 1.55926 49.5221 1.65891" fill="#52A5B1"/>
<path fill-rule="evenodd" clip-rule="evenodd" d="M10.656 1.62589C4.97554 -0.807401 1.56231 -0.483498 0.399645 2.42316C0.399645 2.42316 0.399645 2.42314 0.399645 2.43145C0.208636 2.91312 0.0840389 3.46954 0.00929625 4.09239C-0.165103 9.63996 2.11039 16.9731 7.16798 25.3442C11.7107 33.159 15.5641 38.1917 18.7365 40.4672C18.7199 40.4505 18.7116 40.4422 18.695 40.4256C17.8313 39.4872 17.0257 38.4906 16.2617 37.4858V37.4691C13.8533 33.6739 11.6027 29.7374 9.69265 25.6598C8.09814 22.2632 6.71953 18.7171 5.77279 15.0879C4.86757 11.5999 4.18658 7.01566 6.08837 3.72698L6.09668 3.70207C6.66971 2.90482 7.3922 2.24877 8.30572 1.88336C9.06976 1.58439 9.86702 1.52624 10.6477 1.6342" fill="#52A5B1"/>
<path fill-rule="evenodd" clip-rule="evenodd" d="M35.8277 9.64825C42.0978 5.49588 45.2287 3.41141 45.2287 3.41141C50.8012 0.513056 54.4386 1.80859 54.4054 8.00393C53.5002 18.6423 48.9492 29.1727 40.7441 39.6034C36.6665 43.6562 34.2664 43.8804 33.5356 40.2595C35.2879 42.3855 37.3641 41.7295 39.7641 38.2913C46.2584 25.801 49.4309 15.4865 49.2731 7.34785C42.0646 12.0151 38.452 14.3487 38.452 14.3487C32.8962 17.953 27.2821 18.1357 21.6266 14.8968C14.2686 9.86418 10.5896 7.35616 10.5896 7.35616C10.1162 12.2061 11.2872 18.2935 14.0859 25.6183C15.9379 30.9914 17.9061 35.2518 19.9906 38.4076C22.5069 42.4437 24.5167 42.9835 26.0032 40.0519C24.9901 45.2258 21.8176 44.3122 16.4943 37.3196C11.2457 29.0564 7.71617 21.6154 6.03861 15.0131C4.81782 10.4704 4.75971 6.5755 6.32931 3.85985C7.79094 1.80858 9.86713 1.33521 12.5579 2.43974C19.6999 6.81634 23.2709 9.00048 23.2709 9.00048C27.5064 12.422 31.7003 12.638 35.836 9.65656" fill="white"/>
</svg>
