<svg width="97" height="98" viewBox="0 0 97 98" fill="none" xmlns="http://www.w3.org/2000/svg">
<path d="M84.8863 46.0729V51.189C84.6638 51.959 84.698 52.8487 84.5782 53.6529C82.3881 69.292 69.9487 82.0565 54.378 84.6573C53.2487 84.8455 52.0681 84.8626 50.9388 85.1193C49.4331 85.0508 47.8932 85.2048 46.3874 85.1193C41.2542 84.8455 35.8644 83.2371 31.3301 80.7903C29.9954 80.0717 28.541 78.8568 27.3091 78.275C26.5562 77.9157 26.1969 77.8473 25.5125 78.3606C24.1265 79.4044 21.1493 85.1877 19.9686 81.0641C20.2082 77.7617 19.6778 74.083 19.9686 70.832C20.0371 70.0106 20.4819 69.5829 21.3203 69.4802C23.3052 69.2407 28.233 69.292 30.2692 69.4802C30.5088 69.4973 30.7483 69.4802 30.9536 69.6513C33.6913 71.9612 26.4706 74.2541 29.3452 76.5127C32.5449 79.0279 38.3796 81.2181 42.3664 81.9538C67.2281 86.4882 88.257 62.9953 80.7455 38.7496C80.4033 37.6545 79.3082 35.4814 79.2055 34.5917C79.0687 33.3255 80.8824 32.5042 81.7721 34.027C83.4147 36.8845 84.4756 42.531 84.7322 45.8333L84.8691 46.0558L84.8863 46.0729Z" fill="#52A5B0"/>
<path d="M17.4017 64.0562C16.8713 64.484 15.7933 64.2615 15.3997 63.6627C14.6127 62.4478 13.586 58.9401 13.2267 57.4515C5.64672 26.3615 39.4401 1.15764 67.1935 17.5496C68.2201 18.1656 69.9483 19.8253 71.129 19.4489C72.053 19.1409 74.1062 15.8556 75.1157 15.1883C76.1253 14.675 76.9979 15.1883 77.1006 16.3005C77.4086 19.6371 76.861 23.4356 77.1006 26.8235C77.0835 27.5251 76.4846 27.8673 75.8857 28.0213C73.0111 27.8331 69.7772 28.2951 66.9369 28.0213C65.7391 27.9186 64.9692 27.0118 65.6707 25.8996C66.184 25.0954 68.1175 23.4699 68.3571 22.7683C68.5966 22.0668 68.3913 21.6219 67.878 21.1428C63.9083 17.4469 54.9252 15.2397 49.6209 15.1028C25.2212 14.4868 8.98329 37.7743 17.0253 60.771C17.3504 61.7121 18.4625 63.2178 17.4188 64.0562H17.4017Z" fill="#52A5B0"/>
<path d="M67.7242 39.023C65.534 33.7016 58.6555 30.1084 53.7619 34.3689C52.53 35.4469 51.3493 37.4831 49.7238 37.9793C47.3454 38.561 45.891 35.6864 44.3511 34.3347C39.4746 30.0742 32.579 33.6674 30.3888 38.9888C29.1398 42.0174 29.0713 45.4566 29.5675 48.9643C29.5504 49.0498 30.0979 52.1982 30.3888 53.2248C31.5352 57.3656 33.1778 62.1908 34.7007 66.2117C35.6418 68.6757 36.8566 71.7214 39.697 72.1834C39.8852 72.2176 40.0563 72.2347 40.2616 72.2347C40.3643 72.2347 40.4498 72.2689 40.5354 72.2689C40.9974 72.2689 41.4081 72.1662 41.7845 72.0465C41.7845 72.0465 41.7845 72.0465 41.8016 72.0465C41.8016 72.0465 41.8016 72.0465 41.8187 72.0465C41.9556 71.9951 42.0925 71.9438 42.2123 71.8754C46.353 70.1472 45.3948 62.1736 48.0299 60.4113C48.3207 60.223 48.5945 60.1204 48.8511 60.069C49.2276 60.0519 49.6211 60.1375 50.066 60.4455C52.7866 62.2592 51.6402 70.7461 56.2943 72.0807C57.6973 72.4913 58.8437 72.286 59.7848 71.7214C59.7848 71.7214 59.8019 71.7214 59.819 71.7214C60.0757 71.5674 60.3153 71.3963 60.5377 71.208C60.743 71.0369 60.9141 70.8487 61.1023 70.6434C61.1194 70.6263 61.1365 70.6092 61.1537 70.575C61.6328 70.0103 62.0263 69.3601 62.3685 68.6757C62.3857 68.6243 62.4198 68.5901 62.437 68.5388C62.5054 68.3848 62.591 68.2308 62.6594 68.0768C62.9845 67.3753 63.2583 66.6566 63.5149 65.9722C64.4218 63.5767 65.3458 60.9417 66.2013 58.3067C66.6291 57.0234 67.6386 53.6012 67.7412 53.2248C68.0321 52.1811 68.5797 49.0498 68.5626 48.9814C69.0588 45.4908 68.9732 42.0687 67.7412 39.0401L67.7242 39.023ZM35.8129 35.1218C39.5259 33.1027 42.5887 34.232 45.0355 37.3975C45.1039 37.5002 45.2237 37.5173 45.1724 37.6884C44.6077 37.8082 43.4955 37.2777 43.0335 37.4831C42.5202 37.7055 42.4689 38.6466 42.9822 38.9032C43.7693 39.2797 46.3359 39.4508 47.277 39.5021C49.0223 39.5706 50.6649 39.6219 52.0679 38.4584C52.3075 38.253 52.5471 38.0477 52.6839 37.8082C55.1136 34.6427 58.5529 33.1712 62.2659 35.1902C68.7166 38.6979 67.7584 47.6467 65.9789 53.6183C64.8838 57.3142 63.5149 61.3352 62.1974 64.9798C61.8894 65.8182 61.513 66.9475 60.9997 67.9913C60.9654 68.0597 60.9312 68.1281 60.897 68.1966C60.8628 68.265 60.8286 68.3335 60.7772 68.4019C60.2468 69.343 59.5966 70.1643 58.7924 70.5579C58.7753 70.5579 58.7582 70.5578 58.724 70.575C58.5871 70.6434 58.4502 70.6947 58.2962 70.7289C58.2278 70.7461 58.1422 70.7461 58.0738 70.7632C57.9711 70.7632 57.8513 70.7974 57.7487 70.7974C57.6973 70.7974 57.6289 70.7974 57.5775 70.7974C57.2182 70.7803 56.8418 70.6947 56.4312 70.5065C56.1916 70.3867 55.9692 70.2499 55.781 70.0788C55.781 70.0788 55.7467 70.0445 55.7296 70.0274C55.5585 69.8734 55.4045 69.7023 55.2676 69.497C55.2163 69.4285 55.1821 69.3772 55.1307 69.3088C55.0281 69.1548 54.9254 68.9666 54.8398 68.7955C54.7885 68.6928 54.7372 68.5901 54.703 68.4875C54.6174 68.2992 54.5319 68.0939 54.4635 67.8715C54.4463 67.803 54.4121 67.7346 54.395 67.6662C53.1288 63.8847 53.2828 58.0671 48.5431 58.6318C48.5089 58.6318 48.4918 58.6318 48.4576 58.6489C45.1895 59.0082 44.8815 63.2174 44.0089 66.5711C43.4955 68.4704 42.8282 70.0788 41.4081 70.5921C38.0715 71.7727 36.7026 67.2555 35.8642 64.9627C34.5467 61.3352 33.1778 57.3142 32.0828 53.6012C30.3204 47.6296 29.3451 38.6808 35.7958 35.1731L35.8129 35.1218Z" fill="#52A5B0"/>
</svg>
