<svg width="97" height="98" viewBox="0 0 97 98" fill="none" xmlns="http://www.w3.org/2000/svg">
<path d="M25.6419 30.596C26.7545 27.8403 28.6201 25.4955 31.5469 23.9037C36.9041 20.994 41.3543 22.62 44.8801 27.1899C44.9828 27.3268 45.1369 27.3611 45.0855 27.6007C44.2639 27.789 42.6722 27.0016 42.0047 27.2926C41.2516 27.6178 41.1831 28.97 41.9362 29.3294C43.0658 29.86 46.78 30.1338 48.1493 30.1852C50.6653 30.2879 53.0444 30.3735 55.0812 28.679C55.7487 28.1313 56.4676 27.5152 55.9541 26.5909C55.201 25.2387 53.9687 26.8647 53.3011 27.2926C48.8339 30.1509 46.4548 24.9991 43.8874 22.7569C36.8357 16.6123 26.8743 21.7985 23.7078 29.4835C23.6736 29.5862 23.6394 29.6888 23.6052 29.8086C23.5025 30.8356 24.9915 31.2806 25.6762 30.596H25.6419Z" fill="#52A5B0"/>
<path d="M77.2803 43.1416C76.5956 43.4497 76.3046 46.4107 76.0993 47.2494C74.6102 53.2912 72.1969 60.0692 70.0745 65.957C68.8422 69.3973 66.6 77.3561 61.3797 74.9257C55.6116 72.2556 59.1546 56.6802 49.9463 57.7756C42.7576 58.6314 45.3079 73.0601 39.6425 75.0455C34.8159 76.7571 32.8305 70.2188 31.6323 66.8984C29.7325 61.6609 27.747 55.8416 26.1724 50.5014C25.6076 48.5844 25.1112 46.462 24.7517 44.2541C24.1185 43.5866 22.9888 43.5524 22.6294 44.7162C23.8275 52.1103 26.7372 59.6412 28.9109 65.8201C30.6739 70.835 33.0872 79.256 40.1903 77.2363C46.8997 75.3194 45.2565 63.0473 49.1932 60.4286C51.9659 58.5801 53.746 61.7123 54.4135 63.9716C55.7657 68.473 56.5188 77.3732 62.9714 77.5273C68.0035 77.6471 69.9205 72.7006 71.4095 68.7811C73.6175 62.9788 76.0137 56.0127 77.6568 50.0392C78.0676 48.5502 78.8892 45.6919 78.9234 44.237C78.9405 43.3641 78.0847 42.7993 77.2974 43.1587L77.2803 43.1416Z" fill="#52A5B0"/>
<path d="M72.5906 20.7203C72.1285 20.5662 71.461 20.3951 70.9818 20.2924C70.6908 20.2239 69.4585 20.0014 68.5342 20.0185C66.8911 20.2068 65.4191 20.4122 63.8616 21.0113C57.3404 23.5273 54.1227 30.87 56.3819 37.4425C55.9369 38.7946 54.5334 40.5576 54.1911 41.8241C54.0542 42.3034 54.3794 42.7826 54.8757 42.8511C56.0396 43.0051 57.4431 42.6457 58.6241 42.6114C60.3528 42.5601 59.9934 42.8511 61.2086 43.6555C62.886 44.7852 64.8029 45.6067 66.8226 45.795C67.3532 45.8464 68.363 45.9661 68.5684 45.9661C73.8059 45.8806 78.5812 42.7826 80.5666 37.9217C83.4763 30.7844 79.6766 23.2021 72.5906 20.7032V20.7203ZM77.7939 39.599C73.6176 45.504 65.402 45.8292 60.2844 40.9512L56.2793 41.1566L58.0935 37.4596C54.6875 28.8674 62.0473 19.9329 71.17 22.004C78.9748 23.7669 82.4152 33.0608 77.7939 39.599Z" fill="#52A5B0"/>
<path d="M15.4751 33.0773C15.6634 32.7692 15.7832 32.581 16.1769 32.5296C16.7588 32.444 18.3848 32.4612 18.9838 32.5296C19.9765 32.6323 19.9252 33.7448 19.1721 33.8475C18.6758 33.916 16.4336 33.9331 15.9886 33.8475C15.7147 33.7962 15.6463 33.5566 15.4751 33.3854V33.1116V33.0773Z" fill="#52A5B0"/>
<path d="M31.3585 35.9706C30.9306 35.5427 30.1604 34.9607 29.6469 34.6527C28.9965 34.2761 27.1651 33.7797 26.9768 33.1807C26.6688 32.1708 28.774 31.7943 29.5271 31.3664C31.6666 30.1512 32.9503 28.1315 33.7547 25.8551C35.0726 24.7597 35.2266 26.4199 35.6545 27.2757C36.5446 29.0387 37.5887 30.3908 39.3345 31.3835C39.9849 31.743 41.0461 31.9997 41.5082 32.2907C42.0217 32.633 41.9874 33.2834 41.5253 33.6599C39.0606 34.4301 37.0752 35.885 35.8771 38.1957C35.4834 38.9487 35.2609 40.7288 34.097 40.3865C33.6863 40.2667 33.0358 38.3839 32.7277 37.8533C32.3854 37.2714 31.8035 36.4669 31.3414 35.9877L31.3585 35.9706ZM38.8552 32.8384C36.8869 32.0168 35.3978 30.2367 34.4393 28.3711C33.6862 29.7404 32.7449 31.0241 31.5125 31.9655C30.9991 32.3591 30.3829 32.6159 29.9208 33.0609C31.0847 33.5059 32.1972 34.4644 33.0187 35.4058C33.5836 36.0733 33.9943 36.8264 34.5078 37.5281C35.1924 35.9534 36.4419 34.6697 37.794 33.6599C38.0679 33.4545 38.5985 33.2491 38.7868 33.078C38.8723 32.9924 38.9066 32.8897 38.8552 32.8384Z" fill="#52A5B0"/>
<path d="M22.9548 40.4542C22.7323 40.2317 22.3387 39.9408 22.0648 39.7696C21.3802 39.3588 20.2334 39.3417 20.5073 38.3319C20.5757 38.0752 21.8081 37.6644 22.1504 37.459C22.7666 37.0824 23.28 36.5176 23.6566 35.9015C23.9304 35.4393 24.2043 34.3781 24.7178 34.2583C25.4195 34.0872 25.5393 35.1141 25.7618 35.5249C26.2411 36.4149 26.9599 37.2023 27.8499 37.6644C28.1923 37.8527 29.0823 38.0409 29.185 38.4004C29.4417 39.239 28.3635 39.3246 27.8329 39.6156C26.9771 40.0606 26.3267 40.7624 25.8646 41.601C25.6592 41.9947 25.4537 42.8505 25.0772 42.9703C24.2043 43.2441 24.1872 42.2686 23.8791 41.7209C23.6566 41.3272 23.2801 40.7452 22.972 40.4372L22.9548 40.4542ZM24.8718 40.8651C25.2655 39.9237 26.1041 39.2219 26.9428 38.6571C26.1041 38.058 25.3511 37.3563 24.8376 36.4491C24.2728 37.2707 23.6394 38.1094 22.7152 38.5544L24.2899 40.0435L24.8718 40.8479V40.8651Z" fill="#52A5B0"/>
<path d="M23.2117 20.0698C23.4684 20.0184 23.6396 20.0697 23.845 20.2409C24.0504 20.4121 25.317 22.6885 25.4197 22.9794C25.6593 23.6983 24.889 24.1947 24.3242 23.6983L22.6982 20.6859C22.7496 20.395 22.9207 20.1382 23.2117 20.0698Z" fill="#52A5B0"/>
<path d="M18.0593 25.3242C18.2134 25.3242 18.3846 25.4098 18.5215 25.4612C19.0178 25.6837 20.5412 26.5566 20.9348 26.8818C21.6537 27.4808 21.0888 28.2853 20.3186 28.0628C20.1132 27.9943 17.9053 26.7277 17.6999 26.5566C17.1864 26.1458 17.409 25.3585 18.0422 25.3242H18.0593Z" fill="#52A5B0"/>
<path d="M73.7036 26.7796C74.1486 26.6769 74.3198 26.7796 74.645 27.0363C75.0044 27.3102 76.9214 29.193 77.1439 29.5353C77.2808 29.7578 77.4006 30.0145 77.3321 30.2712L67.405 40.3011L66.5492 40.2497L60.0109 33.6431C59.8226 33.3007 59.9596 33.0953 60.1479 32.8215C60.456 32.3765 62.3045 30.5622 62.7495 30.2199C63.1945 29.8776 63.3998 29.8605 63.8962 30.2199C64.3926 30.5793 66.7888 33.335 67.0113 33.335L73.7207 26.7796H73.7036ZM73.9261 28.6966L67.3194 35.2348L66.5492 35.1493L63.3656 31.9828L61.9792 33.3692L67.0113 38.4355L75.2954 30.1685C75.2954 30.1685 75.3467 30.0316 75.2954 29.946C75.2269 29.8091 74.0459 28.6966 73.9432 28.7137L73.9261 28.6966Z" fill="#52A5B0"/>
</svg>
