<svg width="98" height="98" viewBox="0 0 98 98" fill="none" xmlns="http://www.w3.org/2000/svg">
<path d="M37.3731 31.4433C37.4416 31.1867 37.2705 31.1525 37.1507 30.9985C33.3521 26.0877 28.5783 24.3425 22.7949 27.4737C12.7681 32.932 14.2567 46.8087 17.0115 56.0826C18.7226 61.8318 20.8443 68.0772 22.8976 73.7065C24.198 77.2656 26.3197 84.298 31.5213 82.4672C37.5956 80.3112 34.875 64.8261 42.5919 63.9021C52.4989 62.7215 48.6832 79.4557 54.8944 82.3303C60.5238 84.9311 62.9364 76.3929 64.2539 72.697C66.5296 66.3661 69.1304 59.077 70.7217 52.5921C70.9441 51.6852 71.2522 48.5026 71.9879 48.1775C72.8434 47.7839 73.7674 48.4 73.7503 49.3411C73.7161 50.8981 72.8263 53.978 72.3814 55.5864C70.6019 62.0029 68.0353 69.4973 65.657 75.7427C64.0486 79.9519 61.9953 85.2733 56.5884 85.1364C49.6586 84.9653 48.8373 75.4005 47.3829 70.5582C46.6471 68.1285 44.7478 64.7748 41.7706 66.7596C37.5443 69.5829 39.3067 82.7581 32.086 84.8284C24.4375 87.0186 21.8538 77.95 19.9546 72.5601C15.9336 61.1302 9.48287 45.3372 14.3252 33.5137C17.7131 25.2664 28.4414 19.6712 36.0214 26.2759C38.7762 28.6714 41.3599 34.2153 46.1509 31.1525C46.8695 30.6905 48.187 28.9281 49.0083 30.3825C49.5559 31.3749 48.7859 32.0251 48.0673 32.624C45.8771 34.4377 43.3276 34.335 40.607 34.2324C39.1526 34.181 35.1488 33.8902 33.9339 33.3084C33.1297 32.932 33.1982 31.4604 34.0024 31.1182C34.721 30.8102 36.4321 31.6486 37.3218 31.4433H37.3731Z" fill="#52A5B0"/>
<path d="M71.9534 13.5451C72.1416 13.7334 72.4667 14.2125 72.5694 14.452C72.7918 14.9482 72.8431 15.9064 73.1169 16.0946C73.2538 16.1973 74.2462 16.5566 74.4173 16.5395C74.7082 16.5053 75.0333 16.1117 75.3413 15.992C76.8299 15.3931 78.1303 15.5642 79.3965 16.5395C81.638 18.2848 83.195 20.6289 81.1418 23.264L81.8262 24.9921C83.6742 25.0435 85.1285 26.2926 85.3168 28.1576C85.505 30.1082 85.4537 33.1881 83.1266 33.8554C82.7844 33.9581 82.2198 33.8383 82.0144 34.0608L81.1076 36.3365C82.1684 37.4487 82.2711 39.3137 81.3642 40.5628C80.5087 41.7434 78.5923 43.4887 77.0524 43.4203C76.0428 43.3689 75.6151 42.7701 74.7938 42.599L72.4838 43.5743C72.5351 44.7549 71.5085 46.1751 70.3792 46.5002C69.6777 46.7055 67.1795 46.7055 66.4096 46.6029C64.9038 46.3975 63.8772 44.9602 63.7574 43.54L61.4133 42.5647C58.8124 44.3442 56.7421 42.8385 55.0824 40.6997C53.7991 39.0571 54.0215 37.8251 55.2021 36.1996L54.2782 34.0437C53.32 33.8212 52.7211 33.8554 52.0024 33.1026C50.0689 31.1348 50.5309 24.4617 54.4835 24.975L55.2021 23.0416C53.5766 21.3305 54.0215 19.6194 55.4417 17.9768C57.0158 16.1631 59.7022 14.1782 61.7555 16.5224L63.5521 15.9235C63.1243 14.2638 64.9038 12.6896 66.4438 12.4672C68.1206 12.2276 70.7215 12.2448 71.9876 13.5109L71.9534 13.5451ZM71.0295 41.7092L74.5713 40.1864C75.5808 40.135 75.9231 41.4697 77.1722 41.1959C77.4801 41.1275 79.4307 39.2795 79.619 38.9715C80.4916 37.5514 78.5752 36.9867 78.7976 35.8231C79.3281 35.1045 79.8072 32.4353 80.5943 32.2128C81.3129 32.0075 82.2197 32.3668 82.7502 31.4428C83.1437 30.7584 83.1266 28.2603 82.6646 27.6101C82.0658 26.7545 81.3985 27.2507 80.6285 27.0112C79.6874 26.7203 79.1741 24.034 78.6265 23.1784C78.5752 22.1176 80.6798 21.6898 79.465 19.9958C79.1741 19.5852 77.5657 18.0452 77.1208 17.9426C75.9231 17.6517 75.6493 19.0377 74.5371 19.1574C73.8013 18.7468 71.5598 18.1993 71.0465 17.7373C70.2937 17.07 71.115 15.8209 70.1568 15.1193C69.4553 14.6231 66.4438 14.5718 65.8791 15.3418C65.2803 16.1631 65.9818 17.3437 64.938 17.9084C64.6643 18.0624 61.8924 19.1574 61.7213 19.1574C60.7118 19.1061 60.2498 17.1726 58.5558 18.2506C58.2136 18.473 56.6394 20.1157 56.5368 20.475C56.1261 22.0492 57.8542 22.2031 57.6147 23.4351C57.5634 23.726 56.3143 26.4637 56.1432 26.6519C55.4075 27.4561 54.0044 26.6861 53.5424 27.6956C53.3371 28.1405 53.3542 31.0835 53.5937 31.5113C54.1584 32.5208 55.6641 31.7337 56.263 32.7775C56.3999 32.9999 57.5121 35.8745 57.5292 36.0456C57.5805 37.1578 56.2117 37.2263 56.5196 38.6464C56.5881 38.9886 58.436 40.905 58.7783 41.0761C60.4038 41.9145 60.5749 39.8271 62.0464 40.289C62.8335 40.9906 65.2803 41.213 65.5198 42.2225C65.6738 42.8899 65.4 43.7112 66.2213 44.1389C66.7346 44.4127 69.4553 44.4127 69.9857 44.1389C71.0636 43.5743 70.345 42.3252 70.9952 41.7263L71.0295 41.7092Z" fill="#52A5B0"/>
<path d="M72.6721 29.5772C72.6721 32.0583 70.653 34.0773 68.1549 34.0773C65.6567 34.0773 63.6377 32.0583 63.6377 29.5772C63.6377 27.0962 65.6567 25.0771 68.1549 25.0771C70.653 25.0771 72.6721 27.0962 72.6721 29.5772ZM70.3108 29.5772C70.3108 28.3795 69.3526 27.4213 68.1549 27.4213C66.9571 27.4213 65.999 28.3795 65.999 29.5772C65.999 30.775 66.9571 31.7332 68.1549 31.7332C69.3526 31.7332 70.3108 30.775 70.3108 29.5772Z" fill="#52A5B0"/>
</svg>
