<svg width="220" height="220" viewBox="0 0 220 220" fill="none" xmlns="http://www.w3.org/2000/svg">
<g clip-path="url(#clip0_199_1482)">
<path d="M220 0H0V220H220V0Z" fill="#D4EEF7"/>
<path d="M20.3879 13.75H13.75V20.3879H20.3879V13.75Z" fill="black"/>
<path d="M27.0259 13.75H20.3879V20.3879H27.0259V13.75Z" fill="black"/>
<path d="M33.6638 13.75H27.0259V20.3879H33.6638V13.75Z" fill="black"/>
<path d="M40.3017 13.75H33.6638V20.3879H40.3017V13.75Z" fill="black"/>
<path d="M46.9397 13.75H40.3017V20.3879H46.9397V13.75Z" fill="black"/>
<path d="M53.5776 13.75H46.9397V20.3879H53.5776V13.75Z" fill="black"/>
<path d="M60.2155 13.75H53.5776V20.3879H60.2155V13.75Z" fill="black"/>
<path d="M73.4914 13.75H66.8535V20.3879H73.4914V13.75Z" fill="black"/>
<path d="M86.7672 13.75H80.1293V20.3879H86.7672V13.75Z" fill="black"/>
<path d="M119.957 13.75H113.319V20.3879H119.957V13.75Z" fill="black"/>
<path d="M126.595 13.75H119.957V20.3879H126.595V13.75Z" fill="black"/>
<path d="M139.871 13.75H133.233V20.3879H139.871V13.75Z" fill="black"/>
<path d="M153.147 13.75H146.509V20.3879H153.147V13.75Z" fill="black"/>
<path d="M166.422 13.75H159.784V20.3879H166.422V13.75Z" fill="black"/>
<path d="M173.06 13.75H166.422V20.3879H173.06V13.75Z" fill="black"/>
<path d="M179.698 13.75H173.06V20.3879H179.698V13.75Z" fill="black"/>
<path d="M186.336 13.75H179.698V20.3879H186.336V13.75Z" fill="black"/>
<path d="M192.974 13.75H186.336V20.3879H192.974V13.75Z" fill="black"/>
<path d="M199.612 13.75H192.974V20.3879H199.612V13.75Z" fill="black"/>
<path d="M206.25 13.75H199.612V20.3879H206.25V13.75Z" fill="black"/>
<path d="M20.3879 20.3879H13.75V27.0259H20.3879V20.3879Z" fill="black"/>
<path d="M60.2155 20.3879H53.5776V27.0259H60.2155V20.3879Z" fill="black"/>
<path d="M80.1293 20.3879H73.4914V27.0259H80.1293V20.3879Z" fill="black"/>
<path d="M86.7672 20.3879H80.1293V27.0259H86.7672V20.3879Z" fill="black"/>
<path d="M93.4052 20.3879H86.7672V27.0259H93.4052V20.3879Z" fill="black"/>
<path d="M100.043 20.3879H93.4052V27.0259H100.043V20.3879Z" fill="black"/>
<path d="M113.319 20.3879H106.681V27.0259H113.319V20.3879Z" fill="black"/>
<path d="M119.957 20.3879H113.319V27.0259H119.957V20.3879Z" fill="black"/>
<path d="M166.422 20.3879H159.784V27.0259H166.422V20.3879Z" fill="black"/>
<path d="M206.25 20.3879H199.612V27.0259H206.25V20.3879Z" fill="black"/>
<path d="M20.3879 27.0259H13.75V33.6638H20.3879V27.0259Z" fill="black"/>
<path d="M33.6638 27.0259H27.0259V33.6638H33.6638V27.0259Z" fill="black"/>
<path d="M40.3017 27.0259H33.6638V33.6638H40.3017V27.0259Z" fill="black"/>
<path d="M46.9397 27.0259H40.3017V33.6638H46.9397V27.0259Z" fill="black"/>
<path d="M60.2155 27.0259H53.5776V33.6638H60.2155V27.0259Z" fill="black"/>
<path d="M86.7672 27.0259H80.1293V33.6638H86.7672V27.0259Z" fill="black"/>
<path d="M93.4052 27.0259H86.7672V33.6638H93.4052V27.0259Z" fill="black"/>
<path d="M100.043 27.0259H93.4052V33.6638H100.043V27.0259Z" fill="black"/>
<path d="M106.681 27.0259H100.043V33.6638H106.681V27.0259Z" fill="black"/>
<path d="M119.957 27.0259H113.319V33.6638H119.957V27.0259Z" fill="black"/>
<path d="M126.595 27.0259H119.957V33.6638H126.595V27.0259Z" fill="black"/>
<path d="M146.509 27.0259H139.871V33.6638H146.509V27.0259Z" fill="black"/>
<path d="M153.147 27.0259H146.509V33.6638H153.147V27.0259Z" fill="black"/>
<path d="M166.422 27.0259H159.784V33.6638H166.422V27.0259Z" fill="black"/>
<path d="M179.698 27.0259H173.06V33.6638H179.698V27.0259Z" fill="black"/>
<path d="M186.336 27.0259H179.698V33.6638H186.336V27.0259Z" fill="black"/>
<path d="M192.974 27.0259H186.336V33.6638H192.974V27.0259Z" fill="black"/>
<path d="M206.25 27.0259H199.612V33.6638H206.25V27.0259Z" fill="black"/>
<path d="M20.3879 33.6638H13.75V40.3017H20.3879V33.6638Z" fill="black"/>
<path d="M33.6638 33.6638H27.0259V40.3017H33.6638V33.6638Z" fill="black"/>
<path d="M40.3017 33.6638H33.6638V40.3017H40.3017V33.6638Z" fill="black"/>
<path d="M46.9397 33.6638H40.3017V40.3017H46.9397V33.6638Z" fill="black"/>
<path d="M60.2155 33.6638H53.5776V40.3017H60.2155V33.6638Z" fill="black"/>
<path d="M73.4914 33.6638H66.8535V40.3017H73.4914V33.6638Z" fill="black"/>
<path d="M80.1293 33.6638H73.4914V40.3017H80.1293V33.6638Z" fill="black"/>
<path d="M86.7672 33.6638H80.1293V40.3017H86.7672V33.6638Z" fill="black"/>
<path d="M93.4052 33.6638H86.7672V40.3017H93.4052V33.6638Z" fill="black"/>
<path d="M106.681 33.6638H100.043V40.3017H106.681V33.6638Z" fill="black"/>
<path d="M126.595 33.6638H119.957V40.3017H126.595V33.6638Z" fill="black"/>
<path d="M146.509 33.6638H139.871V40.3017H146.509V33.6638Z" fill="black"/>
<path d="M166.422 33.6638H159.784V40.3017H166.422V33.6638Z" fill="black"/>
<path d="M179.698 33.6638H173.06V40.3017H179.698V33.6638Z" fill="black"/>
<path d="M186.336 33.6638H179.698V40.3017H186.336V33.6638Z" fill="black"/>
<path d="M192.974 33.6638H186.336V40.3017H192.974V33.6638Z" fill="black"/>
<path d="M206.25 33.6638H199.612V40.3017H206.25V33.6638Z" fill="black"/>
<path d="M20.3879 40.3017H13.75V46.9397H20.3879V40.3017Z" fill="black"/>
<path d="M33.6638 40.3017H27.0259V46.9397H33.6638V40.3017Z" fill="black"/>
<path d="M40.3017 40.3017H33.6638V46.9397H40.3017V40.3017Z" fill="black"/>
<path d="M46.9397 40.3017H40.3017V46.9397H46.9397V40.3017Z" fill="black"/>
<path d="M60.2155 40.3017H53.5776V46.9397H60.2155V40.3017Z" fill="black"/>
<path d="M106.681 40.3017H100.043V46.9397H106.681V40.3017Z" fill="black"/>
<path d="M113.319 40.3017H106.681V46.9397H113.319V40.3017Z" fill="black"/>
<path d="M119.957 40.3017H113.319V46.9397H119.957V40.3017Z" fill="black"/>
<path d="M133.233 40.3017H126.595V46.9397H133.233V40.3017Z" fill="black"/>
<path d="M166.422 40.3017H159.784V46.9397H166.422V40.3017Z" fill="black"/>
<path d="M179.698 40.3017H173.06V46.9397H179.698V40.3017Z" fill="black"/>
<path d="M186.336 40.3017H179.698V46.9397H186.336V40.3017Z" fill="black"/>
<path d="M192.974 40.3017H186.336V46.9397H192.974V40.3017Z" fill="black"/>
<path d="M206.25 40.3017H199.612V46.9397H206.25V40.3017Z" fill="black"/>
<path d="M20.3879 46.9397H13.75V53.5776H20.3879V46.9397Z" fill="black"/>
<path d="M60.2155 46.9397H53.5776V53.5776H60.2155V46.9397Z" fill="black"/>
<path d="M73.4914 46.9397H66.8535V53.5776H73.4914V46.9397Z" fill="black"/>
<path d="M80.1293 46.9397H73.4914V53.5776H80.1293V46.9397Z" fill="black"/>
<path d="M86.7672 46.9397H80.1293V53.5776H86.7672V46.9397Z" fill="black"/>
<path d="M93.4052 46.9397H86.7672V53.5776H93.4052V46.9397Z" fill="black"/>
<path d="M100.043 46.9397H93.4052V53.5776H100.043V46.9397Z" fill="black"/>
<path d="M106.681 46.9397H100.043V53.5776H106.681V46.9397Z" fill="black"/>
<path d="M119.957 46.9397H113.319V53.5776H119.957V46.9397Z" fill="black"/>
<path d="M126.595 46.9397H119.957V53.5776H126.595V46.9397Z" fill="black"/>
<path d="M166.422 46.9397H159.784V53.5776H166.422V46.9397Z" fill="black"/>
<path d="M206.25 46.9397H199.612V53.5776H206.25V46.9397Z" fill="black"/>
<path d="M20.3879 53.5776H13.75V60.2155H20.3879V53.5776Z" fill="black"/>
<path d="M27.0259 53.5776H20.3879V60.2155H27.0259V53.5776Z" fill="black"/>
<path d="M33.6638 53.5776H27.0259V60.2155H33.6638V53.5776Z" fill="black"/>
<path d="M40.3017 53.5776H33.6638V60.2155H40.3017V53.5776Z" fill="black"/>
<path d="M46.9397 53.5776H40.3017V60.2155H46.9397V53.5776Z" fill="black"/>
<path d="M53.5776 53.5776H46.9397V60.2155H53.5776V53.5776Z" fill="black"/>
<path d="M60.2155 53.5776H53.5776V60.2155H60.2155V53.5776Z" fill="black"/>
<path d="M73.4914 53.5776H66.8535V60.2155H73.4914V53.5776Z" fill="black"/>
<path d="M86.7672 53.5776H80.1293V60.2155H86.7672V53.5776Z" fill="black"/>
<path d="M100.043 53.5776H93.4052V60.2155H100.043V53.5776Z" fill="black"/>
<path d="M113.319 53.5776H106.681V60.2155H113.319V53.5776Z" fill="black"/>
<path d="M126.595 53.5776H119.957V60.2155H126.595V53.5776Z" fill="black"/>
<path d="M139.871 53.5776H133.233V60.2155H139.871V53.5776Z" fill="black"/>
<path d="M153.147 53.5776H146.509V60.2155H153.147V53.5776Z" fill="black"/>
<path d="M166.422 53.5776H159.784V60.2155H166.422V53.5776Z" fill="black"/>
<path d="M173.06 53.5776H166.422V60.2155H173.06V53.5776Z" fill="black"/>
<path d="M179.698 53.5776H173.06V60.2155H179.698V53.5776Z" fill="black"/>
<path d="M186.336 53.5776H179.698V60.2155H186.336V53.5776Z" fill="black"/>
<path d="M192.974 53.5776H186.336V60.2155H192.974V53.5776Z" fill="black"/>
<path d="M199.612 53.5776H192.974V60.2155H199.612V53.5776Z" fill="black"/>
<path d="M206.25 53.5776H199.612V60.2155H206.25V53.5776Z" fill="black"/>
<path d="M80.1293 60.2155H73.4914V66.8535H80.1293V60.2155Z" fill="black"/>
<path d="M113.319 60.2155H106.681V66.8535H113.319V60.2155Z" fill="black"/>
<path d="M133.233 60.2155H126.595V66.8535H133.233V60.2155Z" fill="black"/>
<path d="M139.871 60.2155H133.233V66.8535H139.871V60.2155Z" fill="black"/>
<path d="M146.509 60.2155H139.871V66.8535H146.509V60.2155Z" fill="black"/>
<path d="M153.147 60.2155H146.509V66.8535H153.147V60.2155Z" fill="black"/>
<path d="M53.5776 66.8535H46.9397V73.4914H53.5776V66.8535Z" fill="black"/>
<path d="M60.2155 66.8535H53.5776V73.4914H60.2155V66.8535Z" fill="black"/>
<path d="M73.4914 66.8535H66.8535V73.4914H73.4914V66.8535Z" fill="black"/>
<path d="M80.1293 66.8535H73.4914V73.4914H80.1293V66.8535Z" fill="black"/>
<path d="M93.4052 66.8535H86.7672V73.4914H93.4052V66.8535Z" fill="black"/>
<path d="M100.043 66.8535H93.4052V73.4914H100.043V66.8535Z" fill="black"/>
<path d="M113.319 66.8535H106.681V73.4914H113.319V66.8535Z" fill="black"/>
<path d="M119.957 66.8535H113.319V73.4914H119.957V66.8535Z" fill="black"/>
<path d="M126.595 66.8535H119.957V73.4914H126.595V66.8535Z" fill="black"/>
<path d="M133.233 66.8535H126.595V73.4914H133.233V66.8535Z" fill="black"/>
<path d="M159.784 66.8535H153.147V73.4914H159.784V66.8535Z" fill="black"/>
<path d="M173.06 66.8535H166.422V73.4914H173.06V66.8535Z" fill="black"/>
<path d="M186.336 66.8535H179.698V73.4914H186.336V66.8535Z" fill="black"/>
<path d="M206.25 66.8535H199.612V73.4914H206.25V66.8535Z" fill="black"/>
<path d="M20.3879 73.4914H13.75V80.1293H20.3879V73.4914Z" fill="black"/>
<path d="M40.3017 73.4914H33.6638V80.1293H40.3017V73.4914Z" fill="black"/>
<path d="M66.8535 73.4914H60.2155V80.1293H66.8535V73.4914Z" fill="black"/>
<path d="M73.4914 73.4914H66.8535V80.1293H73.4914V73.4914Z" fill="black"/>
<path d="M80.1293 73.4914H73.4914V80.1293H80.1293V73.4914Z" fill="black"/>
<path d="M119.957 73.4914H113.319V80.1293H119.957V73.4914Z" fill="black"/>
<path d="M133.233 73.4914H126.595V80.1293H133.233V73.4914Z" fill="black"/>
<path d="M146.509 73.4914H139.871V80.1293H146.509V73.4914Z" fill="black"/>
<path d="M159.784 73.4914H153.147V80.1293H159.784V73.4914Z" fill="black"/>
<path d="M20.3879 80.1293H13.75V86.7672H20.3879V80.1293Z" fill="black"/>
<path d="M40.3017 80.1293H33.6638V86.7672H40.3017V80.1293Z" fill="black"/>
<path d="M46.9397 80.1293H40.3017V86.7672H46.9397V80.1293Z" fill="black"/>
<path d="M60.2155 80.1293H53.5776V86.7672H60.2155V80.1293Z" fill="black"/>
<path d="M66.8535 80.1293H60.2155V86.7672H66.8535V80.1293Z" fill="black"/>
<path d="M73.4914 80.1293H66.8535V86.7672H73.4914V80.1293Z" fill="black"/>
<path d="M86.7672 80.1293H80.1293V86.7672H86.7672V80.1293Z" fill="black"/>
<path d="M100.043 80.1293H93.4052V86.7672H100.043V80.1293Z" fill="black"/>
<path d="M119.957 80.1293H113.319V86.7672H119.957V80.1293Z" fill="black"/>
<path d="M139.871 80.1293H133.233V86.7672H139.871V80.1293Z" fill="black"/>
<path d="M153.147 80.1293H146.509V86.7672H153.147V80.1293Z" fill="black"/>
<path d="M166.422 80.1293H159.784V86.7672H166.422V80.1293Z" fill="black"/>
<path d="M179.698 80.1293H173.06V86.7672H179.698V80.1293Z" fill="black"/>
<path d="M192.974 80.1293H186.336V86.7672H192.974V80.1293Z" fill="black"/>
<path d="M206.25 80.1293H199.612V86.7672H206.25V80.1293Z" fill="black"/>
<path d="M53.5776 86.7672H46.9397V93.4052H53.5776V86.7672Z" fill="black"/>
<path d="M86.7672 86.7672H80.1293V93.4052H86.7672V86.7672Z" fill="black"/>
<path d="M106.681 86.7672H100.043V93.4052H106.681V86.7672Z" fill="black"/>
<path d="M113.319 86.7672H106.681V93.4052H113.319V86.7672Z" fill="black"/>
<path d="M126.595 86.7672H119.957V93.4052H126.595V86.7672Z" fill="black"/>
<path d="M139.871 86.7672H133.233V93.4052H139.871V86.7672Z" fill="black"/>
<path d="M146.509 86.7672H139.871V93.4052H146.509V86.7672Z" fill="black"/>
<path d="M153.147 86.7672H146.509V93.4052H153.147V86.7672Z" fill="black"/>
<path d="M159.784 86.7672H153.147V93.4052H159.784V86.7672Z" fill="black"/>
<path d="M173.06 86.7672H166.422V93.4052H173.06V86.7672Z" fill="black"/>
<path d="M179.698 86.7672H173.06V93.4052H179.698V86.7672Z" fill="black"/>
<path d="M33.6638 93.4052H27.0259V100.043H33.6638V93.4052Z" fill="black"/>
<path d="M60.2155 93.4052H53.5776V100.043H60.2155V93.4052Z" fill="black"/>
<path d="M73.4914 93.4052H66.8535V100.043H73.4914V93.4052Z" fill="black"/>
<path d="M80.1293 93.4052H73.4914V100.043H80.1293V93.4052Z" fill="black"/>
<path d="M86.7672 93.4052H80.1293V100.043H86.7672V93.4052Z" fill="black"/>
<path d="M93.4052 93.4052H86.7672V100.043H93.4052V93.4052Z" fill="black"/>
<path d="M100.043 93.4052H93.4052V100.043H100.043V93.4052Z" fill="black"/>
<path d="M113.319 93.4052H106.681V100.043H113.319V93.4052Z" fill="black"/>
<path d="M119.957 93.4052H113.319V100.043H119.957V93.4052Z" fill="black"/>
<path d="M139.871 93.4052H133.233V100.043H139.871V93.4052Z" fill="black"/>
<path d="M146.509 93.4052H139.871V100.043H146.509V93.4052Z" fill="black"/>
<path d="M166.422 93.4052H159.784V100.043H166.422V93.4052Z" fill="black"/>
<path d="M179.698 93.4052H173.06V100.043H179.698V93.4052Z" fill="black"/>
<path d="M192.974 93.4052H186.336V100.043H192.974V93.4052Z" fill="black"/>
<path d="M206.25 93.4052H199.612V100.043H206.25V93.4052Z" fill="black"/>
<path d="M20.3879 100.043H13.75V106.681H20.3879V100.043Z" fill="black"/>
<path d="M27.0259 100.043H20.3879V106.681H27.0259V100.043Z" fill="black"/>
<path d="M33.6638 100.043H27.0259V106.681H33.6638V100.043Z" fill="black"/>
<path d="M40.3017 100.043H33.6638V106.681H40.3017V100.043Z" fill="black"/>
<path d="M46.9397 100.043H40.3017V106.681H46.9397V100.043Z" fill="black"/>
<path d="M53.5776 100.043H46.9397V106.681H53.5776V100.043Z" fill="black"/>
<path d="M119.957 100.043H113.319V106.681H119.957V100.043Z" fill="black"/>
<path d="M126.595 100.043H119.957V106.681H126.595V100.043Z" fill="black"/>
<path d="M139.871 100.043H133.233V106.681H139.871V100.043Z" fill="black"/>
<path d="M146.509 100.043H139.871V106.681H146.509V100.043Z" fill="black"/>
<path d="M159.784 100.043H153.147V106.681H159.784V100.043Z" fill="black"/>
<path d="M166.422 100.043H159.784V106.681H166.422V100.043Z" fill="black"/>
<path d="M173.06 100.043H166.422V106.681H173.06V100.043Z" fill="black"/>
<path d="M199.612 100.043H192.974V106.681H199.612V100.043Z" fill="black"/>
<path d="M206.25 100.043H199.612V106.681H206.25V100.043Z" fill="black"/>
<path d="M27.0259 106.681H20.3879V113.319H27.0259V106.681Z" fill="black"/>
<path d="M40.3017 106.681H33.6638V113.319H40.3017V106.681Z" fill="black"/>
<path d="M46.9397 106.681H40.3017V113.319H46.9397V106.681Z" fill="black"/>
<path d="M53.5776 106.681H46.9397V113.319H53.5776V106.681Z" fill="black"/>
<path d="M60.2155 106.681H53.5776V113.319H60.2155V106.681Z" fill="black"/>
<path d="M66.8535 106.681H60.2155V113.319H66.8535V106.681Z" fill="black"/>
<path d="M80.1293 106.681H73.4914V113.319H80.1293V106.681Z" fill="black"/>
<path d="M93.4052 106.681H86.7672V113.319H93.4052V106.681Z" fill="black"/>
<path d="M119.957 106.681H113.319V113.319H119.957V106.681Z" fill="black"/>
<path d="M126.595 106.681H119.957V113.319H126.595V106.681Z" fill="black"/>
<path d="M153.147 106.681H146.509V113.319H153.147V106.681Z" fill="black"/>
<path d="M166.422 106.681H159.784V113.319H166.422V106.681Z" fill="black"/>
<path d="M179.698 106.681H173.06V113.319H179.698V106.681Z" fill="black"/>
<path d="M186.336 106.681H179.698V113.319H186.336V106.681Z" fill="black"/>
<path d="M206.25 106.681H199.612V113.319H206.25V106.681Z" fill="black"/>
<path d="M27.0259 113.319H20.3879V119.957H27.0259V113.319Z" fill="black"/>
<path d="M40.3017 113.319H33.6638V119.957H40.3017V113.319Z" fill="black"/>
<path d="M73.4914 113.319H66.8535V119.957H73.4914V113.319Z" fill="black"/>
<path d="M80.1293 113.319H73.4914V119.957H80.1293V113.319Z" fill="black"/>
<path d="M93.4052 113.319H86.7672V119.957H93.4052V113.319Z" fill="black"/>
<path d="M106.681 113.319H100.043V119.957H106.681V113.319Z" fill="black"/>
<path d="M113.319 113.319H106.681V119.957H113.319V113.319Z" fill="black"/>
<path d="M126.595 113.319H119.957V119.957H126.595V113.319Z" fill="black"/>
<path d="M133.233 113.319H126.595V119.957H133.233V113.319Z" fill="black"/>
<path d="M146.509 113.319H139.871V119.957H146.509V113.319Z" fill="black"/>
<path d="M159.784 113.319H153.147V119.957H159.784V113.319Z" fill="black"/>
<path d="M166.422 113.319H159.784V119.957H166.422V113.319Z" fill="black"/>
<path d="M179.698 113.319H173.06V119.957H179.698V113.319Z" fill="black"/>
<path d="M186.336 113.319H179.698V119.957H186.336V113.319Z" fill="black"/>
<path d="M199.612 113.319H192.974V119.957H199.612V113.319Z" fill="black"/>
<path d="M20.3879 119.957H13.75V126.595H20.3879V119.957Z" fill="black"/>
<path d="M33.6638 119.957H27.0259V126.595H33.6638V119.957Z" fill="black"/>
<path d="M46.9397 119.957H40.3017V126.595H46.9397V119.957Z" fill="black"/>
<path d="M60.2155 119.957H53.5776V126.595H60.2155V119.957Z" fill="black"/>
<path d="M86.7672 119.957H80.1293V126.595H86.7672V119.957Z" fill="black"/>
<path d="M100.043 119.957H93.4052V126.595H100.043V119.957Z" fill="black"/>
<path d="M113.319 119.957H106.681V126.595H113.319V119.957Z" fill="black"/>
<path d="M119.957 119.957H113.319V126.595H119.957V119.957Z" fill="black"/>
<path d="M126.595 119.957H119.957V126.595H126.595V119.957Z" fill="black"/>
<path d="M146.509 119.957H139.871V126.595H146.509V119.957Z" fill="black"/>
<path d="M153.147 119.957H146.509V126.595H153.147V119.957Z" fill="black"/>
<path d="M159.784 119.957H153.147V126.595H159.784V119.957Z" fill="black"/>
<path d="M173.06 119.957H166.422V126.595H173.06V119.957Z" fill="black"/>
<path d="M186.336 119.957H179.698V126.595H186.336V119.957Z" fill="black"/>
<path d="M27.0259 126.595H20.3879V133.233H27.0259V126.595Z" fill="black"/>
<path d="M33.6638 126.595H27.0259V133.233H33.6638V126.595Z" fill="black"/>
<path d="M66.8535 126.595H60.2155V133.233H66.8535V126.595Z" fill="black"/>
<path d="M86.7672 126.595H80.1293V133.233H86.7672V126.595Z" fill="black"/>
<path d="M100.043 126.595H93.4052V133.233H100.043V126.595Z" fill="black"/>
<path d="M106.681 126.595H100.043V133.233H106.681V126.595Z" fill="black"/>
<path d="M119.957 126.595H113.319V133.233H119.957V126.595Z" fill="black"/>
<path d="M126.595 126.595H119.957V133.233H126.595V126.595Z" fill="black"/>
<path d="M139.871 126.595H133.233V133.233H139.871V126.595Z" fill="black"/>
<path d="M146.509 126.595H139.871V133.233H146.509V126.595Z" fill="black"/>
<path d="M166.422 126.595H159.784V133.233H166.422V126.595Z" fill="black"/>
<path d="M20.3879 133.233H13.75V139.871H20.3879V133.233Z" fill="black"/>
<path d="M27.0259 133.233H20.3879V139.871H27.0259V133.233Z" fill="black"/>
<path d="M33.6638 133.233H27.0259V139.871H33.6638V133.233Z" fill="black"/>
<path d="M40.3017 133.233H33.6638V139.871H40.3017V133.233Z" fill="black"/>
<path d="M46.9397 133.233H40.3017V139.871H46.9397V133.233Z" fill="black"/>
<path d="M60.2155 133.233H53.5776V139.871H60.2155V133.233Z" fill="black"/>
<path d="M66.8535 133.233H60.2155V139.871H66.8535V133.233Z" fill="black"/>
<path d="M73.4914 133.233H66.8535V139.871H73.4914V133.233Z" fill="black"/>
<path d="M106.681 133.233H100.043V139.871H106.681V133.233Z" fill="black"/>
<path d="M119.957 133.233H113.319V139.871H119.957V133.233Z" fill="black"/>
<path d="M133.233 133.233H126.595V139.871H133.233V133.233Z" fill="black"/>
<path d="M139.871 133.233H133.233V139.871H139.871V133.233Z" fill="black"/>
<path d="M146.509 133.233H139.871V139.871H146.509V133.233Z" fill="black"/>
<path d="M153.147 133.233H146.509V139.871H153.147V133.233Z" fill="black"/>
<path d="M173.06 133.233H166.422V139.871H173.06V133.233Z" fill="black"/>
<path d="M179.698 133.233H173.06V139.871H179.698V133.233Z" fill="black"/>
<path d="M20.3879 139.871H13.75V146.509H20.3879V139.871Z" fill="black"/>
<path d="M53.5776 139.871H46.9397V146.509H53.5776V139.871Z" fill="black"/>
<path d="M73.4914 139.871H66.8535V146.509H73.4914V139.871Z" fill="black"/>
<path d="M86.7672 139.871H80.1293V146.509H86.7672V139.871Z" fill="black"/>
<path d="M93.4052 139.871H86.7672V146.509H93.4052V139.871Z" fill="black"/>
<path d="M106.681 139.871H100.043V146.509H106.681V139.871Z" fill="black"/>
<path d="M146.509 139.871H139.871V146.509H146.509V139.871Z" fill="black"/>
<path d="M186.336 139.871H179.698V146.509H186.336V139.871Z" fill="black"/>
<path d="M192.974 139.871H186.336V146.509H192.974V139.871Z" fill="black"/>
<path d="M199.612 139.871H192.974V146.509H199.612V139.871Z" fill="black"/>
<path d="M33.6638 146.509H27.0259V153.147H33.6638V146.509Z" fill="black"/>
<path d="M60.2155 146.509H53.5776V153.147H60.2155V146.509Z" fill="black"/>
<path d="M80.1293 146.509H73.4914V153.147H80.1293V146.509Z" fill="black"/>
<path d="M86.7672 146.509H80.1293V153.147H86.7672V146.509Z" fill="black"/>
<path d="M106.681 146.509H100.043V153.147H106.681V146.509Z" fill="black"/>
<path d="M119.957 146.509H113.319V153.147H119.957V146.509Z" fill="black"/>
<path d="M126.595 146.509H119.957V153.147H126.595V146.509Z" fill="black"/>
<path d="M133.233 146.509H126.595V153.147H133.233V146.509Z" fill="black"/>
<path d="M153.147 146.509H146.509V153.147H153.147V146.509Z" fill="black"/>
<path d="M159.784 146.509H153.147V153.147H159.784V146.509Z" fill="black"/>
<path d="M166.422 146.509H159.784V153.147H166.422V146.509Z" fill="black"/>
<path d="M173.06 146.509H166.422V153.147H173.06V146.509Z" fill="black"/>
<path d="M179.698 146.509H173.06V153.147H179.698V146.509Z" fill="black"/>
<path d="M199.612 146.509H192.974V153.147H199.612V146.509Z" fill="black"/>
<path d="M206.25 146.509H199.612V153.147H206.25V146.509Z" fill="black"/>
<path d="M73.4914 153.147H66.8535V159.784H73.4914V153.147Z" fill="black"/>
<path d="M100.043 153.147H93.4052V159.784H100.043V153.147Z" fill="black"/>
<path d="M113.319 153.147H106.681V159.784H113.319V153.147Z" fill="black"/>
<path d="M119.957 153.147H113.319V159.784H119.957V153.147Z" fill="black"/>
<path d="M126.595 153.147H119.957V159.784H126.595V153.147Z" fill="black"/>
<path d="M133.233 153.147H126.595V159.784H133.233V153.147Z" fill="black"/>
<path d="M139.871 153.147H133.233V159.784H139.871V153.147Z" fill="black"/>
<path d="M153.147 153.147H146.509V159.784H153.147V153.147Z" fill="black"/>
<path d="M179.698 153.147H173.06V159.784H179.698V153.147Z" fill="black"/>
<path d="M192.974 153.147H186.336V159.784H192.974V153.147Z" fill="black"/>
<path d="M199.612 153.147H192.974V159.784H199.612V153.147Z" fill="black"/>
<path d="M20.3879 159.784H13.75V166.422H20.3879V159.784Z" fill="black"/>
<path d="M27.0259 159.784H20.3879V166.422H27.0259V159.784Z" fill="black"/>
<path d="M33.6638 159.784H27.0259V166.422H33.6638V159.784Z" fill="black"/>
<path d="M40.3017 159.784H33.6638V166.422H40.3017V159.784Z" fill="black"/>
<path d="M46.9397 159.784H40.3017V166.422H46.9397V159.784Z" fill="black"/>
<path d="M53.5776 159.784H46.9397V166.422H53.5776V159.784Z" fill="black"/>
<path d="M60.2155 159.784H53.5776V166.422H60.2155V159.784Z" fill="black"/>
<path d="M80.1293 159.784H73.4914V166.422H80.1293V159.784Z" fill="black"/>
<path d="M93.4052 159.784H86.7672V166.422H93.4052V159.784Z" fill="black"/>
<path d="M100.043 159.784H93.4052V166.422H100.043V159.784Z" fill="black"/>
<path d="M113.319 159.784H106.681V166.422H113.319V159.784Z" fill="black"/>
<path d="M133.233 159.784H126.595V166.422H133.233V159.784Z" fill="black"/>
<path d="M153.147 159.784H146.509V166.422H153.147V159.784Z" fill="black"/>
<path d="M166.422 159.784H159.784V166.422H166.422V159.784Z" fill="black"/>
<path d="M179.698 159.784H173.06V166.422H179.698V159.784Z" fill="black"/>
<path d="M186.336 159.784H179.698V166.422H186.336V159.784Z" fill="black"/>
<path d="M206.25 159.784H199.612V166.422H206.25V159.784Z" fill="black"/>
<path d="M20.3879 166.422H13.75V173.06H20.3879V166.422Z" fill="black"/>
<path d="M60.2155 166.422H53.5776V173.06H60.2155V166.422Z" fill="black"/>
<path d="M73.4914 166.422H66.8535V173.06H73.4914V166.422Z" fill="black"/>
<path d="M86.7672 166.422H80.1293V173.06H86.7672V166.422Z" fill="black"/>
<path d="M93.4052 166.422H86.7672V173.06H93.4052V166.422Z" fill="black"/>
<path d="M106.681 166.422H100.043V173.06H106.681V166.422Z" fill="black"/>
<path d="M133.233 166.422H126.595V173.06H133.233V166.422Z" fill="black"/>
<path d="M139.871 166.422H133.233V173.06H139.871V166.422Z" fill="black"/>
<path d="M146.509 166.422H139.871V173.06H146.509V166.422Z" fill="black"/>
<path d="M153.147 166.422H146.509V173.06H153.147V166.422Z" fill="black"/>
<path d="M179.698 166.422H173.06V173.06H179.698V166.422Z" fill="black"/>
<path d="M186.336 166.422H179.698V173.06H186.336V166.422Z" fill="black"/>
<path d="M199.612 166.422H192.974V173.06H199.612V166.422Z" fill="black"/>
<path d="M20.3879 173.06H13.75V179.698H20.3879V173.06Z" fill="black"/>
<path d="M33.6638 173.06H27.0259V179.698H33.6638V173.06Z" fill="black"/>
<path d="M40.3017 173.06H33.6638V179.698H40.3017V173.06Z" fill="black"/>
<path d="M46.9397 173.06H40.3017V179.698H46.9397V173.06Z" fill="black"/>
<path d="M60.2155 173.06H53.5776V179.698H60.2155V173.06Z" fill="black"/>
<path d="M86.7672 173.06H80.1293V179.698H86.7672V173.06Z" fill="black"/>
<path d="M93.4052 173.06H86.7672V179.698H93.4052V173.06Z" fill="black"/>
<path d="M113.319 173.06H106.681V179.698H113.319V173.06Z" fill="black"/>
<path d="M119.957 173.06H113.319V179.698H119.957V173.06Z" fill="black"/>
<path d="M139.871 173.06H133.233V179.698H139.871V173.06Z" fill="black"/>
<path d="M146.509 173.06H139.871V179.698H146.509V173.06Z" fill="black"/>
<path d="M153.147 173.06H146.509V179.698H153.147V173.06Z" fill="black"/>
<path d="M159.784 173.06H153.147V179.698H159.784V173.06Z" fill="black"/>
<path d="M166.422 173.06H159.784V179.698H166.422V173.06Z" fill="black"/>
<path d="M173.06 173.06H166.422V179.698H173.06V173.06Z" fill="black"/>
<path d="M179.698 173.06H173.06V179.698H179.698V173.06Z" fill="black"/>
<path d="M186.336 173.06H179.698V179.698H186.336V173.06Z" fill="black"/>
<path d="M192.974 173.06H186.336V179.698H192.974V173.06Z" fill="black"/>
<path d="M199.612 173.06H192.974V179.698H199.612V173.06Z" fill="black"/>
<path d="M206.25 173.06H199.612V179.698H206.25V173.06Z" fill="black"/>
<path d="M20.3879 179.698H13.75V186.336H20.3879V179.698Z" fill="black"/>
<path d="M33.6638 179.698H27.0259V186.336H33.6638V179.698Z" fill="black"/>
<path d="M40.3017 179.698H33.6638V186.336H40.3017V179.698Z" fill="black"/>
<path d="M46.9397 179.698H40.3017V186.336H46.9397V179.698Z" fill="black"/>
<path d="M60.2155 179.698H53.5776V186.336H60.2155V179.698Z" fill="black"/>
<path d="M80.1293 179.698H73.4914V186.336H80.1293V179.698Z" fill="black"/>
<path d="M86.7672 179.698H80.1293V186.336H86.7672V179.698Z" fill="black"/>
<path d="M93.4052 179.698H86.7672V186.336H93.4052V179.698Z" fill="black"/>
<path d="M100.043 179.698H93.4052V186.336H100.043V179.698Z" fill="black"/>
<path d="M119.957 179.698H113.319V186.336H119.957V179.698Z" fill="black"/>
<path d="M126.595 179.698H119.957V186.336H126.595V179.698Z" fill="black"/>
<path d="M139.871 179.698H133.233V186.336H139.871V179.698Z" fill="black"/>
<path d="M179.698 179.698H173.06V186.336H179.698V179.698Z" fill="black"/>
<path d="M186.336 179.698H179.698V186.336H186.336V179.698Z" fill="black"/>
<path d="M20.3879 186.336H13.75V192.974H20.3879V186.336Z" fill="black"/>
<path d="M33.6638 186.336H27.0259V192.974H33.6638V186.336Z" fill="black"/>
<path d="M40.3017 186.336H33.6638V192.974H40.3017V186.336Z" fill="black"/>
<path d="M46.9397 186.336H40.3017V192.974H46.9397V186.336Z" fill="black"/>
<path d="M60.2155 186.336H53.5776V192.974H60.2155V186.336Z" fill="black"/>
<path d="M86.7672 186.336H80.1293V192.974H86.7672V186.336Z" fill="black"/>
<path d="M93.4052 186.336H86.7672V192.974H93.4052V186.336Z" fill="black"/>
<path d="M106.681 186.336H100.043V192.974H106.681V186.336Z" fill="black"/>
<path d="M113.319 186.336H106.681V192.974H113.319V186.336Z" fill="black"/>
<path d="M153.147 186.336H146.509V192.974H153.147V186.336Z" fill="black"/>
<path d="M159.784 186.336H153.147V192.974H159.784V186.336Z" fill="black"/>
<path d="M173.06 186.336H166.422V192.974H173.06V186.336Z" fill="black"/>
<path d="M20.3879 192.974H13.75V199.612H20.3879V192.974Z" fill="black"/>
<path d="M60.2155 192.974H53.5776V199.612H60.2155V192.974Z" fill="black"/>
<path d="M86.7672 192.974H80.1293V199.612H86.7672V192.974Z" fill="black"/>
<path d="M93.4052 192.974H86.7672V199.612H93.4052V192.974Z" fill="black"/>
<path d="M100.043 192.974H93.4052V199.612H100.043V192.974Z" fill="black"/>
<path d="M113.319 192.974H106.681V199.612H113.319V192.974Z" fill="black"/>
<path d="M119.957 192.974H113.319V199.612H119.957V192.974Z" fill="black"/>
<path d="M126.595 192.974H119.957V199.612H126.595V192.974Z" fill="black"/>
<path d="M139.871 192.974H133.233V199.612H139.871V192.974Z" fill="black"/>
<path d="M146.509 192.974H139.871V199.612H146.509V192.974Z" fill="black"/>
<path d="M159.784 192.974H153.147V199.612H159.784V192.974Z" fill="black"/>
<path d="M166.422 192.974H159.784V199.612H166.422V192.974Z" fill="black"/>
<path d="M173.06 192.974H166.422V199.612H173.06V192.974Z" fill="black"/>
<path d="M179.698 192.974H173.06V199.612H179.698V192.974Z" fill="black"/>
<path d="M199.612 192.974H192.974V199.612H199.612V192.974Z" fill="black"/>
<path d="M206.25 192.974H199.612V199.612H206.25V192.974Z" fill="black"/>
<path d="M20.3879 199.612H13.75V206.25H20.3879V199.612Z" fill="black"/>
<path d="M27.0259 199.612H20.3879V206.25H27.0259V199.612Z" fill="black"/>
<path d="M33.6638 199.612H27.0259V206.25H33.6638V199.612Z" fill="black"/>
<path d="M40.3017 199.612H33.6638V206.25H40.3017V199.612Z" fill="black"/>
<path d="M46.9397 199.612H40.3017V206.25H46.9397V199.612Z" fill="black"/>
<path d="M53.5776 199.612H46.9397V206.25H53.5776V199.612Z" fill="black"/>
<path d="M60.2155 199.612H53.5776V206.25H60.2155V199.612Z" fill="black"/>
<path d="M80.1293 199.612H73.4914V206.25H80.1293V199.612Z" fill="black"/>
<path d="M100.043 199.612H93.4052V206.25H100.043V199.612Z" fill="black"/>
<path d="M113.319 199.612H106.681V206.25H113.319V199.612Z" fill="black"/>
<path d="M133.233 199.612H126.595V206.25H133.233V199.612Z" fill="black"/>
<path d="M139.871 199.612H133.233V206.25H139.871V199.612Z" fill="black"/>
<path d="M146.509 199.612H139.871V206.25H146.509V199.612Z" fill="black"/>
<path d="M159.784 199.612H153.147V206.25H159.784V199.612Z" fill="black"/>
<path d="M186.336 199.612H179.698V206.25H186.336V199.612Z" fill="black"/>
<path d="M192.974 199.612H186.336V206.25H192.974V199.612Z" fill="black"/>
</g>
<defs>
<clipPath id="clip0_199_1482">
<rect width="220" height="220" fill="white"/>
</clipPath>
</defs>
</svg>
