<svg width="1262" height="144" viewBox="0 0 1262 144" fill="none" xmlns="http://www.w3.org/2000/svg">
<circle cx="834.5" cy="29.1196" r="28.6196" stroke="#EAF7FB"/>
<path d="M824.471 19.2072C827.325 19.2072 829.519 20.1002 831.052 21.8862C832.586 23.6722 833.353 26.225 833.353 29.5447C833.353 32.8837 832.586 35.4559 831.052 37.2613C829.519 39.0473 827.325 39.9403 824.471 39.9403C821.598 39.9403 819.385 39.0473 817.832 37.2613C816.298 35.4559 815.532 32.8934 815.532 29.5738C815.532 26.2347 816.298 23.6722 817.832 21.8862C819.385 20.1002 821.598 19.2072 824.471 19.2072ZM824.471 22.5851C823.035 22.5851 821.967 23.1384 821.268 24.2449C820.589 25.3514 820.249 27.1277 820.249 29.5738C820.249 31.981 820.589 33.7476 821.268 34.8735C821.967 35.9995 823.035 36.5625 824.471 36.5625C825.888 36.5625 826.937 35.9995 827.616 34.8735C828.296 33.7476 828.635 31.981 828.635 29.5738C828.635 27.1277 828.296 25.3514 827.616 24.2449C826.937 23.1384 825.888 22.5851 824.471 22.5851ZM843.343 28.8749C844.003 28.2149 844.537 27.5451 844.945 26.8657C845.352 26.1862 845.556 25.5844 845.556 25.0602C845.556 24.3808 845.304 23.8566 844.799 23.4878C844.314 23.1189 843.634 22.9345 842.761 22.9345C841.887 22.9345 840.945 23.1675 839.936 23.6334C838.946 24.0799 837.995 24.6914 837.082 25.4679L835.277 22.1483C836.539 21.2359 837.849 20.5176 839.208 19.9934C840.586 19.4499 841.994 19.1781 843.43 19.1781C844.789 19.1781 845.983 19.3916 847.012 19.8187C848.06 20.2458 848.876 20.8573 849.458 21.6533C850.06 22.4298 850.361 23.3519 850.361 24.4196C850.361 25.4873 849.992 26.5939 849.254 27.7392C848.536 28.8652 847.604 30.0106 846.459 31.1754L840.315 37.4652L839.732 36.0674H851.118V39.7656H835.801V36.7081L843.343 28.8749Z" fill="#52A5B0"/>
<circle cx="428.5" cy="29.1196" r="28.6196" stroke="#EAF7FB"/>
<path d="M418.887 19.2072C421.741 19.2072 423.934 20.1002 425.468 21.8862C427.002 23.6722 427.768 26.225 427.768 29.5447C427.768 32.8837 427.002 35.4559 425.468 37.2613C423.934 39.0473 421.741 39.9403 418.887 39.9403C416.014 39.9403 413.801 39.0473 412.248 37.2613C410.714 35.4559 409.947 32.8934 409.947 29.5738C409.947 26.2347 410.714 23.6722 412.248 21.8862C413.801 20.1002 416.014 19.2072 418.887 19.2072ZM418.887 22.5851C417.45 22.5851 416.383 23.1384 415.684 24.2449C415.004 25.3514 414.665 27.1277 414.665 29.5738C414.665 31.981 415.004 33.7476 415.684 34.8735C416.383 35.9995 417.45 36.5625 418.887 36.5625C420.304 36.5625 421.352 35.9995 422.032 34.8735C422.711 33.7476 423.051 31.981 423.051 29.5738C423.051 27.1277 422.711 25.3514 422.032 24.2449C421.352 23.1384 420.304 22.5851 418.887 22.5851ZM429.227 35.1065V31.9616L435.458 19.3819H439.826L433.1 33.272L431.964 31.4957H445.737V35.1065H429.227ZM438.72 26.9239H442.942V39.7656H438.72V26.9239Z" fill="#52A5B0"/>
<circle cx="225.5" cy="105.725" r="28.6196" stroke="#EAF7FB"/>
<path d="M215.588 95.8117C218.442 95.8117 220.636 96.7047 222.169 98.4907C223.703 100.277 224.47 102.83 224.47 106.149C224.47 109.488 223.703 112.06 222.169 113.866C220.636 115.652 218.442 116.545 215.588 116.545C212.715 116.545 210.502 115.652 208.949 113.866C207.415 112.06 206.649 109.498 206.649 106.178C206.649 102.839 207.415 100.277 208.949 98.4907C210.502 96.7047 212.715 95.8117 215.588 95.8117ZM215.588 99.1896C214.152 99.1896 213.084 99.7428 212.385 100.849C211.706 101.956 211.366 103.732 211.366 106.178C211.366 108.585 211.706 110.352 212.385 111.478C213.084 112.604 214.152 113.167 215.588 113.167C217.005 113.167 218.054 112.604 218.733 111.478C219.413 110.352 219.752 108.585 219.752 106.178C219.752 103.732 219.413 101.956 218.733 100.849C218.054 99.7428 217.005 99.1896 215.588 99.1896ZM232.8 105.45L231.111 103.441C231.538 103.441 232.004 103.441 232.509 103.441C233.014 103.422 233.499 103.412 233.965 103.412C234.431 103.412 234.8 103.412 235.072 103.412C236.663 103.412 238.042 103.674 239.207 104.198C240.371 104.722 241.274 105.45 241.915 106.382C242.555 107.314 242.876 108.382 242.876 109.585C242.876 111.002 242.536 112.235 241.856 113.283C241.177 114.312 240.226 115.118 239.003 115.7C237.799 116.283 236.372 116.574 234.722 116.574C233.402 116.574 232.024 116.351 230.587 115.904C229.17 115.438 227.918 114.846 226.831 114.128L228.607 110.779C229.442 111.439 230.335 111.973 231.286 112.381C232.257 112.769 233.237 112.963 234.227 112.963C235.372 112.963 236.275 112.691 236.935 112.148C237.595 111.604 237.925 110.857 237.925 109.906C237.925 109.013 237.605 108.314 236.964 107.809C236.324 107.285 235.353 107.023 234.052 107.023C233.819 107.023 233.47 107.032 233.004 107.052C232.538 107.052 232.024 107.062 231.461 107.081C230.898 107.1 230.354 107.12 229.83 107.139C229.306 107.159 228.879 107.188 228.549 107.227V95.9864H241.944V99.6846H230.762L232.8 97.6754V105.45Z" fill="#52A5B0"/>
<circle cx="631" cy="105.725" r="28.6196" stroke="#EAF7FB"/>
<path d="M620.958 95.8117C623.812 95.8117 626.005 96.7047 627.539 98.4907C629.073 100.277 629.839 102.83 629.839 106.149C629.839 109.488 629.073 112.06 627.539 113.866C626.005 115.652 623.812 116.545 620.958 116.545C618.085 116.545 615.872 115.652 614.319 113.866C612.785 112.06 612.018 109.498 612.018 106.178C612.018 102.839 612.785 100.277 614.319 98.4907C615.872 96.7047 618.085 95.8117 620.958 95.8117ZM620.958 99.1896C619.521 99.1896 618.454 99.7428 617.755 100.849C617.075 101.956 616.736 103.732 616.736 106.178C616.736 108.585 617.075 110.352 617.755 111.478C618.454 112.604 619.521 113.167 620.958 113.167C622.375 113.167 623.423 112.604 624.103 111.478C624.782 110.352 625.122 108.585 625.122 106.178C625.122 103.732 624.782 101.956 624.103 100.849C623.423 99.7428 622.375 99.1896 620.958 99.1896ZM641.606 104.431C643.353 104.625 644.761 105.208 645.828 106.178C646.915 107.13 647.459 108.401 647.459 109.993C647.459 111.274 647.119 112.42 646.44 113.429C645.78 114.419 644.838 115.196 643.615 115.759C642.392 116.302 640.946 116.574 639.276 116.574C637.82 116.574 636.394 116.36 634.996 115.933C633.618 115.487 632.443 114.904 631.472 114.186L633.249 110.896C634.083 111.595 634.986 112.128 635.957 112.497C636.927 112.866 637.918 113.05 638.927 113.05C639.781 113.05 640.509 112.934 641.111 112.701C641.713 112.449 642.169 112.099 642.48 111.653C642.79 111.187 642.946 110.653 642.946 110.051C642.946 109.1 642.586 108.382 641.868 107.896C641.169 107.411 640.179 107.168 638.898 107.168H635.607V104.606L642.276 98.1121L642.887 99.5681H632.521L632.492 95.9573H646.44V98.6363L639.044 105.654L638.519 103.994L641.606 104.431Z" fill="#52A5B0"/>
<circle cx="1037" cy="105.725" r="28.6196" stroke="#EAF7FB"/>
<path d="M1030.83 95.8117C1033.68 95.8117 1035.87 96.7047 1037.41 98.4907C1038.94 100.277 1039.71 102.83 1039.71 106.149C1039.71 109.488 1038.94 112.06 1037.41 113.866C1035.87 115.652 1033.68 116.545 1030.83 116.545C1027.95 116.545 1025.74 115.652 1024.19 113.866C1022.65 112.06 1021.89 109.498 1021.89 106.178C1021.89 102.839 1022.65 100.277 1024.19 98.4907C1025.74 96.7047 1027.95 95.8117 1030.83 95.8117ZM1030.83 99.1896C1029.39 99.1896 1028.32 99.7428 1027.62 100.849C1026.94 101.956 1026.6 103.732 1026.6 106.178C1026.6 108.585 1026.94 110.352 1027.62 111.478C1028.32 112.604 1029.39 113.167 1030.83 113.167C1032.24 113.167 1033.29 112.604 1033.97 111.478C1034.65 110.352 1034.99 108.585 1034.99 106.178C1034.99 103.732 1034.65 101.956 1033.97 100.849C1033.29 99.7428 1032.24 99.1896 1030.83 99.1896ZM1040.85 95.9864H1049.55V116.37H1044.95V97.7336L1046.96 99.7428H1040.85V95.9864Z" fill="#52A5B0"/>
<path d="M1230.71 76.1202C1185.75 46.8219 1083.4 5.80688 970.697 76.1229" stroke="#EAF7FB" stroke-width="2"/>
<path d="M272.883 76.1811C231.059 49.7699 135.839 12.7968 31 76.1835" stroke="#EAF7FB" stroke-width="2"/>
<path d="M742.657 77.1811C700.833 50.7699 605.613 13.7968 500.773 77.1835" stroke="#EAF7FB" stroke-width="2"/>
<path d="M970.696 76.1254C931.046 102.494 840.779 139.407 741.392 76.1229" stroke="#EAF7FB" stroke-width="2"/>
<path d="M502.48 76.1254C462.831 102.494 372.563 139.407 273.176 76.1229" stroke="#EAF7FB" stroke-width="2"/>
<g filter="url(#filter0_d_364_486)">
<path d="M1231 77.8897C1186.04 48.5914 1083.68 7.57641 970.985 77.8924" stroke="#52A5B0" stroke-width="2"/>
<path d="M273.171 77.9467C231.346 51.5356 136.126 14.5624 31.2871 77.9492" stroke="#52A5B0" stroke-width="2"/>
<path d="M742.944 78.9467C701.12 52.5356 605.9 15.5624 501.061 78.9492" stroke="#52A5B0" stroke-width="2"/>
<path d="M970.984 77.8949C931.335 104.263 841.067 141.177 741.68 77.8925" stroke="#52A5B0" stroke-width="2"/>
<path d="M502.769 77.8949C463.12 104.263 372.852 141.177 273.465 77.8925" stroke="#52A5B0" stroke-width="2"/>
</g>
<defs>
<filter id="filter0_d_364_486" x="0.769531" y="8.06543" width="1260.78" height="135.771" filterUnits="userSpaceOnUse" color-interpolation-filters="sRGB">
<feFlood flood-opacity="0" result="BackgroundImageFix"/>
<feColorMatrix in="SourceAlpha" type="matrix" values="0 0 0 0 0 0 0 0 0 0 0 0 0 0 0 0 0 0 127 0" result="hardAlpha"/>
<feOffset/>
<feGaussianBlur stdDeviation="15"/>
<feComposite in2="hardAlpha" operator="out"/>
<feColorMatrix type="matrix" values="0 0 0 0 0.321569 0 0 0 0 0.647059 0 0 0 0 0.694118 0 0 0 1 0"/>
<feBlend mode="normal" in2="BackgroundImageFix" result="effect1_dropShadow_364_486"/>
<feBlend mode="normal" in="SourceGraphic" in2="effect1_dropShadow_364_486" result="shape"/>
</filter>
</defs>
</svg>
