<svg width="1261" height="144" viewBox="0 0 1261 144" fill="none" xmlns="http://www.w3.org/2000/svg">
<path d="M1229.79 76.1202C1197.82 46.8219 1125.03 5.80688 1044.89 76.1229" stroke="#EAF7FB" stroke-width="2"/>
<path d="M215.903 76.1202C183.931 46.8219 111.142 5.80688 31 76.1229" stroke="#EAF7FB" stroke-width="2"/>
<path d="M548.657 76.1791C518.915 49.768 451.202 12.7948 376.647 76.1816" stroke="#EAF7FB" stroke-width="2"/>
<path d="M882.726 77.1791C852.983 50.768 785.27 13.7948 710.716 77.1816" stroke="#EAF7FB" stroke-width="2"/>
<path d="M1044.89 76.1254C1016.69 102.494 952.503 139.407 881.826 76.1229" stroke="#EAF7FB" stroke-width="2"/>
<path d="M711.93 76.1254C683.734 102.494 619.542 139.407 548.865 76.1229" stroke="#EAF7FB" stroke-width="2"/>
<path d="M377.546 75.1254C349.35 101.494 285.158 138.407 214.481 75.1229" stroke="#EAF7FB" stroke-width="2"/>
<g filter="url(#filter0_d_292_431)">
<path d="M1230 77.8897C1198.03 48.5914 1125.24 7.57641 1045.1 77.8924" stroke="#52A5B0" stroke-width="2"/>
<path d="M216.108 77.8897C184.137 48.5914 111.348 7.57641 31.2051 77.8924" stroke="#52A5B0" stroke-width="2"/>
<path d="M548.861 77.9487C519.119 51.5375 451.406 14.5643 376.852 77.9511" stroke="#52A5B0" stroke-width="2"/>
<path d="M882.931 78.9487C853.188 52.5375 785.475 15.5643 710.921 78.9511" stroke="#52A5B0" stroke-width="2"/>
<path d="M1045.1 77.8949C1016.9 104.263 952.708 141.177 882.031 77.8925" stroke="#52A5B0" stroke-width="2"/>
<path d="M712.135 77.8949C683.939 104.263 619.747 141.177 549.07 77.8925" stroke="#52A5B0" stroke-width="2"/>
<path d="M377.751 76.8949C349.555 103.263 285.363 140.177 214.687 76.8925" stroke="#52A5B0" stroke-width="2"/>
</g>
<circle cx="630" cy="29.1196" r="28.6196" stroke="#EAF7FB"/>
<path d="M620.387 19.2072C623.241 19.2072 625.434 20.1002 626.968 21.8862C628.502 23.6722 629.268 26.225 629.268 29.5447C629.268 32.8837 628.502 35.4559 626.968 37.2613C625.434 39.0473 623.241 39.9403 620.387 39.9403C617.514 39.9403 615.301 39.0473 613.748 37.2613C612.214 35.4559 611.447 32.8934 611.447 29.5738C611.447 26.2347 612.214 23.6722 613.748 21.8862C615.301 20.1002 617.514 19.2072 620.387 19.2072ZM620.387 22.5851C618.95 22.5851 617.883 23.1384 617.184 24.2449C616.504 25.3514 616.165 27.1277 616.165 29.5738C616.165 31.981 616.504 33.7476 617.184 34.8735C617.883 35.9995 618.95 36.5625 620.387 36.5625C621.804 36.5625 622.852 35.9995 623.532 34.8735C624.211 33.7476 624.551 31.981 624.551 29.5738C624.551 27.1277 624.211 25.3514 623.532 24.2449C622.852 23.1384 621.804 22.5851 620.387 22.5851ZM630.727 35.1065V31.9616L636.958 19.3819H641.326L634.6 33.272L633.464 31.4957H647.237V35.1065H630.727ZM640.22 26.9239H644.442V39.7656H640.22V26.9239Z" fill="#52A5B0"/>
<circle cx="986" cy="29.1196" r="28.6196" stroke="#EAF7FB"/>
<path d="M975.971 19.2072C978.825 19.2072 981.019 20.1002 982.552 21.8862C984.086 23.6722 984.853 26.225 984.853 29.5447C984.853 32.8837 984.086 35.4559 982.552 37.2613C981.019 39.0473 978.825 39.9403 975.971 39.9403C973.098 39.9403 970.885 39.0473 969.332 37.2613C967.798 35.4559 967.032 32.8934 967.032 29.5738C967.032 26.2347 967.798 23.6722 969.332 21.8862C970.885 20.1002 973.098 19.2072 975.971 19.2072ZM975.971 22.5851C974.535 22.5851 973.467 23.1384 972.768 24.2449C972.089 25.3514 971.749 27.1277 971.749 29.5738C971.749 31.981 972.089 33.7476 972.768 34.8735C973.467 35.9995 974.535 36.5625 975.971 36.5625C977.388 36.5625 978.437 35.9995 979.116 34.8735C979.796 33.7476 980.135 31.981 980.135 29.5738C980.135 27.1277 979.796 25.3514 979.116 24.2449C978.437 23.1384 977.388 22.5851 975.971 22.5851ZM994.843 28.8749C995.503 28.2149 996.037 27.5451 996.445 26.8657C996.852 26.1862 997.056 25.5844 997.056 25.0602C997.056 24.3808 996.804 23.8566 996.299 23.4878C995.814 23.1189 995.134 22.9345 994.261 22.9345C993.387 22.9345 992.445 23.1675 991.436 23.6334C990.446 24.0799 989.495 24.6914 988.582 25.4679L986.777 22.1483C988.039 21.2359 989.349 20.5176 990.708 19.9934C992.086 19.4499 993.494 19.1781 994.93 19.1781C996.289 19.1781 997.483 19.3916 998.512 19.8187C999.56 20.2458 1000.38 20.8573 1000.96 21.6533C1001.56 22.4298 1001.86 23.3519 1001.86 24.4196C1001.86 25.4873 1001.49 26.5939 1000.75 27.7392C1000.04 28.8652 999.104 30.0106 997.959 31.1754L991.815 37.4652L991.232 36.0674H1002.62V39.7656H987.301V36.7081L994.843 28.8749Z" fill="#52A5B0"/>
<circle cx="1086.5" cy="105.725" r="28.6196" stroke="#EAF7FB"/>
<path d="M1080.33 95.8117C1083.18 95.8117 1085.37 96.7047 1086.91 98.4907C1088.44 100.277 1089.21 102.83 1089.21 106.149C1089.21 109.488 1088.44 112.06 1086.91 113.866C1085.37 115.652 1083.18 116.545 1080.33 116.545C1077.45 116.545 1075.24 115.652 1073.69 113.866C1072.15 112.06 1071.39 109.498 1071.39 106.178C1071.39 102.839 1072.15 100.277 1073.69 98.4907C1075.24 96.7047 1077.45 95.8117 1080.33 95.8117ZM1080.33 99.1896C1078.89 99.1896 1077.82 99.7428 1077.12 100.849C1076.44 101.956 1076.1 103.732 1076.1 106.178C1076.1 108.585 1076.44 110.352 1077.12 111.478C1077.82 112.604 1078.89 113.167 1080.33 113.167C1081.74 113.167 1082.79 112.604 1083.47 111.478C1084.15 110.352 1084.49 108.585 1084.49 106.178C1084.49 103.732 1084.15 101.956 1083.47 100.849C1082.79 99.7428 1081.74 99.1896 1080.33 99.1896ZM1090.35 95.9864H1099.05V116.37H1094.45V97.7336L1096.46 99.7428H1090.35V95.9864Z" fill="#52A5B0"/>
<circle cx="783" cy="105.725" r="28.6196" stroke="#EAF7FB"/>
<path d="M772.958 95.8117C775.812 95.8117 778.005 96.7047 779.539 98.4907C781.073 100.277 781.839 102.83 781.839 106.149C781.839 109.488 781.073 112.06 779.539 113.866C778.005 115.652 775.812 116.545 772.958 116.545C770.085 116.545 767.872 115.652 766.319 113.866C764.785 112.06 764.018 109.498 764.018 106.178C764.018 102.839 764.785 100.277 766.319 98.4907C767.872 96.7047 770.085 95.8117 772.958 95.8117ZM772.958 99.1896C771.521 99.1896 770.454 99.7428 769.755 100.849C769.075 101.956 768.736 103.732 768.736 106.178C768.736 108.585 769.075 110.352 769.755 111.478C770.454 112.604 771.521 113.167 772.958 113.167C774.375 113.167 775.423 112.604 776.103 111.478C776.782 110.352 777.122 108.585 777.122 106.178C777.122 103.732 776.782 101.956 776.103 100.849C775.423 99.7428 774.375 99.1896 772.958 99.1896ZM793.606 104.431C795.353 104.625 796.761 105.208 797.828 106.178C798.915 107.13 799.459 108.401 799.459 109.993C799.459 111.274 799.119 112.42 798.44 113.429C797.78 114.419 796.838 115.196 795.615 115.759C794.392 116.302 792.946 116.574 791.276 116.574C789.82 116.574 788.394 116.36 786.996 115.933C785.618 115.487 784.443 114.904 783.472 114.186L785.249 110.896C786.083 111.595 786.986 112.128 787.957 112.497C788.927 112.866 789.918 113.05 790.927 113.05C791.781 113.05 792.509 112.934 793.111 112.701C793.713 112.449 794.169 112.099 794.48 111.653C794.79 111.187 794.946 110.653 794.946 110.051C794.946 109.1 794.586 108.382 793.868 107.896C793.169 107.411 792.179 107.168 790.898 107.168H787.607V104.606L794.276 98.1121L794.887 99.5681H784.521L784.492 95.9573H798.44V98.6363L791.044 105.654L790.519 103.994L793.606 104.431Z" fill="#52A5B0"/>
<circle cx="479.5" cy="105.725" r="28.6196" stroke="#EAF7FB"/>
<path d="M469.588 95.8117C472.442 95.8117 474.636 96.7047 476.169 98.4907C477.703 100.277 478.47 102.83 478.47 106.149C478.47 109.488 477.703 112.06 476.169 113.866C474.636 115.652 472.442 116.545 469.588 116.545C466.715 116.545 464.502 115.652 462.949 113.866C461.415 112.06 460.649 109.498 460.649 106.178C460.649 102.839 461.415 100.277 462.949 98.4907C464.502 96.7047 466.715 95.8117 469.588 95.8117ZM469.588 99.1896C468.152 99.1896 467.084 99.7428 466.385 100.849C465.706 101.956 465.366 103.732 465.366 106.178C465.366 108.585 465.706 110.352 466.385 111.478C467.084 112.604 468.152 113.167 469.588 113.167C471.005 113.167 472.054 112.604 472.733 111.478C473.413 110.352 473.752 108.585 473.752 106.178C473.752 103.732 473.413 101.956 472.733 100.849C472.054 99.7428 471.005 99.1896 469.588 99.1896ZM486.8 105.45L485.111 103.441C485.538 103.441 486.004 103.441 486.509 103.441C487.014 103.422 487.499 103.412 487.965 103.412C488.431 103.412 488.8 103.412 489.072 103.412C490.663 103.412 492.042 103.674 493.207 104.198C494.371 104.722 495.274 105.45 495.915 106.382C496.555 107.314 496.876 108.382 496.876 109.585C496.876 111.002 496.536 112.235 495.856 113.283C495.177 114.312 494.226 115.118 493.003 115.7C491.799 116.283 490.372 116.574 488.722 116.574C487.402 116.574 486.024 116.351 484.587 115.904C483.17 115.438 481.918 114.846 480.831 114.128L482.607 110.779C483.442 111.439 484.335 111.973 485.286 112.381C486.257 112.769 487.237 112.963 488.227 112.963C489.372 112.963 490.275 112.691 490.935 112.148C491.595 111.604 491.925 110.857 491.925 109.906C491.925 109.013 491.605 108.314 490.964 107.809C490.324 107.285 489.353 107.023 488.052 107.023C487.819 107.023 487.47 107.032 487.004 107.052C486.538 107.052 486.024 107.062 485.461 107.081C484.898 107.1 484.354 107.12 483.83 107.139C483.306 107.159 482.879 107.188 482.549 107.227V95.9864H495.944V99.6846H484.762L486.8 97.6754V105.45Z" fill="#52A5B0"/>
<circle cx="175" cy="106.725" r="28.6196" stroke="#EAF7FB"/>
<path d="M166.155 96.8117C169.009 96.8117 171.203 97.7047 172.736 99.4907C174.27 101.277 175.037 103.83 175.037 107.149C175.037 110.488 174.27 113.06 172.736 114.866C171.203 116.652 169.009 117.545 166.155 117.545C163.282 117.545 161.069 116.652 159.516 114.866C157.982 113.06 157.216 110.498 157.216 107.178C157.216 103.839 157.982 101.277 159.516 99.4907C161.069 97.7047 163.282 96.8117 166.155 96.8117ZM166.155 100.19C164.719 100.19 163.651 100.743 162.952 101.849C162.273 102.956 161.933 104.732 161.933 107.178C161.933 109.585 162.273 111.352 162.952 112.478C163.651 113.604 164.719 114.167 166.155 114.167C167.572 114.167 168.621 113.604 169.3 112.478C169.98 111.352 170.319 109.585 170.319 107.178C170.319 104.732 169.98 102.956 169.3 101.849C168.621 100.743 167.572 100.19 166.155 100.19ZM176.699 96.9864H192.685V100.16L184.648 117.37H179.785L188.434 98.8501L189.628 100.685H178.766L180.805 98.6754L180.776 103.567H176.699V96.9864Z" fill="#52A5B0"/>
<circle cx="275" cy="29.1196" r="28.6196" stroke="#EAF7FB"/>
<path d="M264.96 19.2072C267.814 19.2072 270.008 20.1002 271.541 21.8862C273.075 23.6722 273.842 26.225 273.842 29.5447C273.842 32.8837 273.075 35.4559 271.541 37.2613C270.008 39.0473 267.814 39.9403 264.96 39.9403C262.087 39.9403 259.874 39.0473 258.321 37.2613C256.787 35.4559 256.021 32.8934 256.021 29.5738C256.021 26.2347 256.787 23.6722 258.321 21.8862C259.874 20.1002 262.087 19.2072 264.96 19.2072ZM264.96 22.5851C263.524 22.5851 262.456 23.1384 261.757 24.2449C261.078 25.3514 260.738 27.1277 260.738 29.5738C260.738 31.981 261.078 33.7476 261.757 34.8735C262.456 35.9995 263.524 36.5625 264.96 36.5625C266.377 36.5625 267.426 35.9995 268.105 34.8735C268.785 33.7476 269.124 31.981 269.124 29.5738C269.124 27.1277 268.785 25.3514 268.105 24.2449C267.426 23.1384 266.377 22.5851 264.96 22.5851ZM289.947 23.9537C289.365 23.546 288.695 23.2354 287.938 23.0219C287.181 22.7889 286.414 22.6724 285.638 22.6724C284.473 22.6724 283.512 22.9345 282.755 23.4587C281.998 23.9634 281.435 24.6914 281.066 25.6426C280.716 26.5745 280.551 27.6907 280.571 28.9914C281.075 28.176 281.755 27.5548 282.609 27.1277C283.463 26.6812 284.473 26.458 285.638 26.458C286.977 26.458 288.132 26.7298 289.103 27.2733C290.073 27.8169 290.821 28.5837 291.345 29.5738C291.889 30.5444 292.16 31.6995 292.16 33.039C292.16 34.4562 291.85 35.6889 291.228 36.7372C290.627 37.7661 289.772 38.562 288.666 39.125C287.579 39.688 286.288 39.9695 284.793 39.9695C283.026 39.9695 281.503 39.5715 280.221 38.7756C278.94 37.9602 277.96 36.8051 277.28 35.3103C276.601 33.8155 276.261 32.0295 276.261 29.9523C276.261 27.7781 276.63 25.8853 277.368 24.274C278.105 22.6627 279.154 21.4106 280.512 20.5176C281.891 19.6246 283.502 19.1781 285.346 19.1781C286.433 19.1781 287.55 19.3237 288.695 19.6149C289.84 19.9061 290.84 20.304 291.694 20.8088L289.947 23.9537ZM284.706 29.7485C283.949 29.7485 283.298 29.9038 282.755 30.2144C282.231 30.5056 281.833 30.9036 281.561 31.4083C281.289 31.913 281.153 32.476 281.153 33.0972C281.153 33.5049 281.211 33.9029 281.328 34.2911C281.464 34.6794 281.668 35.0288 281.939 35.3395C282.231 35.6501 282.59 35.9024 283.017 36.0966C283.463 36.2713 283.987 36.3586 284.589 36.3586C285.288 36.3586 285.89 36.2325 286.395 35.9801C286.899 35.7083 287.288 35.32 287.559 34.8153C287.851 34.2911 287.996 33.6893 287.996 33.0099C287.996 31.981 287.705 31.1851 287.123 30.6221C286.54 30.0397 285.735 29.7485 284.706 29.7485Z" fill="#52A5B0"/>
<defs>
<filter id="filter0_d_292_431" x="0.545898" y="8.06641" width="1260.13" height="135.77" filterUnits="userSpaceOnUse" color-interpolation-filters="sRGB">
<feFlood flood-opacity="0" result="BackgroundImageFix"/>
<feColorMatrix in="SourceAlpha" type="matrix" values="0 0 0 0 0 0 0 0 0 0 0 0 0 0 0 0 0 0 127 0" result="hardAlpha"/>
<feOffset/>
<feGaussianBlur stdDeviation="15"/>
<feComposite in2="hardAlpha" operator="out"/>
<feColorMatrix type="matrix" values="0 0 0 0 0.321569 0 0 0 0 0.647059 0 0 0 0 0.694118 0 0 0 1 0"/>
<feBlend mode="normal" in2="BackgroundImageFix" result="effect1_dropShadow_292_431"/>
<feBlend mode="normal" in="SourceGraphic" in2="effect1_dropShadow_292_431" result="shape"/>
</filter>
</defs>
</svg>
