<svg width="1262" height="151" viewBox="0 0 1262 151" fill="none" xmlns="http://www.w3.org/2000/svg">
<path d="M1230.76 83.1202C1192.98 53.8219 1106.97 12.8069 1012.26 83.1229" stroke="#EAF7FB" stroke-width="2"/>
<path d="M425.884 83.1811C390.738 56.7699 310.724 19.7968 222.626 83.1835" stroke="#EAF7FB" stroke-width="2"/>
<path d="M820.639 84.1811C785.494 57.7699 705.48 20.7968 617.382 84.1835" stroke="#EAF7FB" stroke-width="2"/>
<path d="M1012.26 83.1254C978.945 109.494 903.092 146.407 819.576 83.1229" stroke="#EAF7FB" stroke-width="2"/>
<path d="M618.816 83.1254C585.498 109.494 509.645 146.407 426.129 83.1229" stroke="#EAF7FB" stroke-width="2"/>
<path d="M223.687 82.1254C190.369 108.494 114.516 145.407 31 82.1229" stroke="#EAF7FB" stroke-width="2"/>
<g filter="url(#filter0_d_364_489)">
<path d="M1231 84.8897C1193.22 55.5914 1107.21 14.5764 1012.51 84.8924" stroke="#52A5B0" stroke-width="2"/>
<path d="M426.124 84.9467C390.978 58.5356 310.964 21.5624 222.866 84.9492" stroke="#52A5B0" stroke-width="2"/>
<path d="M820.881 85.9467C785.735 59.5356 705.721 22.5624 617.623 85.9492" stroke="#52A5B0" stroke-width="2"/>
<path d="M1012.51 84.8949C979.188 111.263 903.335 148.177 819.818 84.8925" stroke="#52A5B0" stroke-width="2"/>
<path d="M619.058 84.8949C585.74 111.263 509.887 148.177 426.371 84.8925" stroke="#52A5B0" stroke-width="2"/>
<path d="M223.929 83.8949C190.611 110.263 114.758 147.177 31.2422 83.8925" stroke="#52A5B0" stroke-width="2"/>
</g>
<circle cx="275.5" cy="112.725" r="28.6196" stroke="#EAF7FB"/>
<path d="M265.588 102.812C268.442 102.812 270.636 103.705 272.169 105.491C273.703 107.277 274.47 109.83 274.47 113.149C274.47 116.488 273.703 119.06 272.169 120.866C270.636 122.652 268.442 123.545 265.588 123.545C262.715 123.545 260.502 122.652 258.949 120.866C257.415 119.06 256.649 116.498 256.649 113.178C256.649 109.839 257.415 107.277 258.949 105.491C260.502 103.705 262.715 102.812 265.588 102.812ZM265.588 106.19C264.152 106.19 263.084 106.743 262.385 107.849C261.706 108.956 261.366 110.732 261.366 113.178C261.366 115.585 261.706 117.352 262.385 118.478C263.084 119.604 264.152 120.167 265.588 120.167C267.005 120.167 268.054 119.604 268.733 118.478C269.413 117.352 269.752 115.585 269.752 113.178C269.752 110.732 269.413 108.956 268.733 107.849C268.054 106.743 267.005 106.19 265.588 106.19ZM282.8 112.45L281.111 110.441C281.538 110.441 282.004 110.441 282.509 110.441C283.014 110.422 283.499 110.412 283.965 110.412C284.431 110.412 284.8 110.412 285.072 110.412C286.663 110.412 288.042 110.674 289.207 111.198C290.371 111.722 291.274 112.45 291.915 113.382C292.555 114.314 292.876 115.382 292.876 116.585C292.876 118.002 292.536 119.235 291.856 120.283C291.177 121.312 290.226 122.118 289.003 122.7C287.799 123.283 286.372 123.574 284.722 123.574C283.402 123.574 282.024 123.351 280.587 122.904C279.17 122.438 277.918 121.846 276.831 121.128L278.607 117.779C279.442 118.439 280.335 118.973 281.286 119.381C282.257 119.769 283.237 119.963 284.227 119.963C285.372 119.963 286.275 119.691 286.935 119.148C287.595 118.604 287.925 117.857 287.925 116.906C287.925 116.013 287.605 115.314 286.964 114.809C286.324 114.285 285.353 114.023 284.052 114.023C283.819 114.023 283.47 114.032 283.004 114.052C282.538 114.052 282.024 114.062 281.461 114.081C280.898 114.1 280.354 114.12 279.83 114.139C279.306 114.159 278.879 114.188 278.549 114.227V102.986H291.944V106.685H280.762L282.8 104.675V112.45Z" fill="#52A5B0"/>
<circle cx="175" cy="36.1196" r="28.6196" stroke="#EAF7FB"/>
<path d="M164.96 26.2072C167.814 26.2072 170.008 27.1002 171.541 28.8862C173.075 30.6722 173.842 33.225 173.842 36.5447C173.842 39.8837 173.075 42.4559 171.541 44.2613C170.008 46.0473 167.814 46.9403 164.96 46.9403C162.087 46.9403 159.874 46.0473 158.321 44.2613C156.787 42.4559 156.021 39.8934 156.021 36.5738C156.021 33.2347 156.787 30.6722 158.321 28.8862C159.874 27.1002 162.087 26.2072 164.96 26.2072ZM164.96 29.5851C163.524 29.5851 162.456 30.1384 161.757 31.2449C161.078 32.3514 160.738 34.1277 160.738 36.5738C160.738 38.981 161.078 40.7476 161.757 41.8735C162.456 42.9995 163.524 43.5625 164.96 43.5625C166.377 43.5625 167.426 42.9995 168.105 41.8735C168.785 40.7476 169.124 38.981 169.124 36.5738C169.124 34.1277 168.785 32.3514 168.105 31.2449C167.426 30.1384 166.377 29.5851 164.96 29.5851ZM189.947 30.9537C189.365 30.546 188.695 30.2354 187.938 30.0219C187.181 29.7889 186.414 29.6724 185.638 29.6724C184.473 29.6724 183.512 29.9345 182.755 30.4587C181.998 30.9634 181.435 31.6914 181.066 32.6426C180.716 33.5745 180.551 34.6907 180.571 35.9914C181.075 35.176 181.755 34.5548 182.609 34.1277C183.463 33.6812 184.473 33.458 185.638 33.458C186.977 33.458 188.132 33.7298 189.103 34.2733C190.073 34.8169 190.821 35.5837 191.345 36.5738C191.889 37.5444 192.16 38.6995 192.16 40.039C192.16 41.4562 191.85 42.6889 191.228 43.7372C190.627 44.7661 189.772 45.562 188.666 46.125C187.579 46.688 186.288 46.9695 184.793 46.9695C183.026 46.9695 181.503 46.5715 180.221 45.7756C178.94 44.9602 177.96 43.8051 177.28 42.3103C176.601 40.8155 176.261 39.0295 176.261 36.9523C176.261 34.7781 176.63 32.8853 177.368 31.274C178.105 29.6627 179.154 28.4106 180.512 27.5176C181.891 26.6246 183.502 26.1781 185.346 26.1781C186.433 26.1781 187.55 26.3237 188.695 26.6149C189.84 26.9061 190.84 27.304 191.694 27.8088L189.947 30.9537ZM184.706 36.7485C183.949 36.7485 183.298 36.9038 182.755 37.2144C182.231 37.5056 181.833 37.9036 181.561 38.4083C181.289 38.913 181.153 39.476 181.153 40.0972C181.153 40.5049 181.211 40.9029 181.328 41.2911C181.464 41.6794 181.668 42.0288 181.939 42.3395C182.231 42.6501 182.59 42.9024 183.017 43.0966C183.463 43.2713 183.987 43.3586 184.589 43.3586C185.288 43.3586 185.89 43.2325 186.395 42.9801C186.899 42.7083 187.288 42.32 187.559 41.8153C187.851 41.2911 187.996 40.6893 187.996 40.0099C187.996 38.981 187.705 38.1851 187.123 37.6221C186.54 37.0397 185.735 36.7485 184.706 36.7485Z" fill="#52A5B0"/>
<circle cx="985" cy="29.1196" r="28.6196" stroke="#EAF7FB"/>
<path d="M974.971 19.2072C977.825 19.2072 980.019 20.1002 981.552 21.8862C983.086 23.6722 983.853 26.225 983.853 29.5447C983.853 32.8837 983.086 35.4559 981.552 37.2613C980.019 39.0473 977.825 39.9403 974.971 39.9403C972.098 39.9403 969.885 39.0473 968.332 37.2613C966.798 35.4559 966.032 32.8934 966.032 29.5738C966.032 26.2347 966.798 23.6722 968.332 21.8862C969.885 20.1002 972.098 19.2072 974.971 19.2072ZM974.971 22.5851C973.535 22.5851 972.467 23.1384 971.768 24.2449C971.089 25.3514 970.749 27.1277 970.749 29.5738C970.749 31.981 971.089 33.7476 971.768 34.8735C972.467 35.9995 973.535 36.5625 974.971 36.5625C976.388 36.5625 977.437 35.9995 978.116 34.8735C978.796 33.7476 979.135 31.981 979.135 29.5738C979.135 27.1277 978.796 25.3514 978.116 24.2449C977.437 23.1384 976.388 22.5851 974.971 22.5851ZM993.843 28.8749C994.503 28.2149 995.037 27.5451 995.445 26.8657C995.852 26.1862 996.056 25.5844 996.056 25.0602C996.056 24.3808 995.804 23.8566 995.299 23.4878C994.814 23.1189 994.134 22.9345 993.261 22.9345C992.387 22.9345 991.445 23.1675 990.436 23.6334C989.446 24.0799 988.495 24.6914 987.582 25.4679L985.777 22.1483C987.039 21.2359 988.349 20.5176 989.708 19.9934C991.086 19.4499 992.494 19.1781 993.93 19.1781C995.289 19.1781 996.483 19.3916 997.512 19.8187C998.56 20.2458 999.376 20.8573 999.958 21.6533C1000.56 22.4298 1000.86 23.3519 1000.86 24.4196C1000.86 25.4873 1000.49 26.5939 999.754 27.7392C999.036 28.8652 998.104 30.0106 996.959 31.1754L990.815 37.4652L990.232 36.0674H1001.62V39.7656H986.301V36.7081L993.843 28.8749Z" fill="#52A5B0"/>
<circle cx="1090" cy="112.725" r="28.6196" stroke="#EAF7FB"/>
<path d="M1083.83 102.812C1086.68 102.812 1088.87 103.705 1090.41 105.491C1091.94 107.277 1092.71 109.83 1092.71 113.149C1092.71 116.488 1091.94 119.06 1090.41 120.866C1088.87 122.652 1086.68 123.545 1083.83 123.545C1080.95 123.545 1078.74 122.652 1077.19 120.866C1075.65 119.06 1074.89 116.498 1074.89 113.178C1074.89 109.839 1075.65 107.277 1077.19 105.491C1078.74 103.705 1080.95 102.812 1083.83 102.812ZM1083.83 106.19C1082.39 106.19 1081.32 106.743 1080.62 107.849C1079.94 108.956 1079.6 110.732 1079.6 113.178C1079.6 115.585 1079.94 117.352 1080.62 118.478C1081.32 119.604 1082.39 120.167 1083.83 120.167C1085.24 120.167 1086.29 119.604 1086.97 118.478C1087.65 117.352 1087.99 115.585 1087.99 113.178C1087.99 110.732 1087.65 108.956 1086.97 107.849C1086.29 106.743 1085.24 106.19 1083.83 106.19ZM1093.85 102.986H1102.55V123.37H1097.95V104.734L1099.96 106.743H1093.85V102.986Z" fill="#52A5B0"/>
<circle cx="682.5" cy="112.725" r="28.6196" stroke="#EAF7FB"/>
<path d="M672.458 102.812C675.312 102.812 677.505 103.705 679.039 105.491C680.573 107.277 681.339 109.83 681.339 113.149C681.339 116.488 680.573 119.06 679.039 120.866C677.505 122.652 675.312 123.545 672.458 123.545C669.585 123.545 667.372 122.652 665.819 120.866C664.285 119.06 663.518 116.498 663.518 113.178C663.518 109.839 664.285 107.277 665.819 105.491C667.372 103.705 669.585 102.812 672.458 102.812ZM672.458 106.19C671.021 106.19 669.954 106.743 669.255 107.849C668.575 108.956 668.236 110.732 668.236 113.178C668.236 115.585 668.575 117.352 669.255 118.478C669.954 119.604 671.021 120.167 672.458 120.167C673.875 120.167 674.923 119.604 675.603 118.478C676.282 117.352 676.622 115.585 676.622 113.178C676.622 110.732 676.282 108.956 675.603 107.849C674.923 106.743 673.875 106.19 672.458 106.19ZM693.106 111.431C694.853 111.625 696.261 112.208 697.328 113.178C698.415 114.13 698.959 115.401 698.959 116.993C698.959 118.274 698.619 119.42 697.94 120.429C697.28 121.419 696.338 122.196 695.115 122.759C693.892 123.302 692.446 123.574 690.776 123.574C689.32 123.574 687.894 123.36 686.496 122.933C685.118 122.487 683.943 121.904 682.972 121.186L684.749 117.896C685.583 118.595 686.486 119.128 687.457 119.497C688.427 119.866 689.418 120.05 690.427 120.05C691.281 120.05 692.009 119.934 692.611 119.701C693.213 119.449 693.669 119.099 693.98 118.653C694.29 118.187 694.446 117.653 694.446 117.051C694.446 116.1 694.086 115.382 693.368 114.896C692.669 114.411 691.679 114.168 690.398 114.168H687.107V111.606L693.776 105.112L694.387 106.568H684.021L683.992 102.957H697.94V105.636L690.544 112.654L690.019 110.994L693.106 111.431Z" fill="#52A5B0"/>
<circle cx="580" cy="36.1196" r="28.6196" stroke="#EAF7FB"/>
<path d="M570.387 26.2072C573.241 26.2072 575.434 27.1002 576.968 28.8862C578.502 30.6722 579.268 33.225 579.268 36.5447C579.268 39.8837 578.502 42.4559 576.968 44.2613C575.434 46.0473 573.241 46.9403 570.387 46.9403C567.514 46.9403 565.301 46.0473 563.748 44.2613C562.214 42.4559 561.447 39.8934 561.447 36.5738C561.447 33.2347 562.214 30.6722 563.748 28.8862C565.301 27.1002 567.514 26.2072 570.387 26.2072ZM570.387 29.5851C568.95 29.5851 567.883 30.1384 567.184 31.2449C566.504 32.3514 566.165 34.1277 566.165 36.5738C566.165 38.981 566.504 40.7476 567.184 41.8735C567.883 42.9995 568.95 43.5625 570.387 43.5625C571.804 43.5625 572.852 42.9995 573.532 41.8735C574.211 40.7476 574.551 38.981 574.551 36.5738C574.551 34.1277 574.211 32.3514 573.532 31.2449C572.852 30.1384 571.804 29.5851 570.387 29.5851ZM580.727 42.1065V38.9616L586.958 26.3819H591.326L584.6 40.272L583.464 38.4957H597.237V42.1065H580.727ZM590.22 33.9239H594.442V46.7656H590.22V33.9239Z" fill="#52A5B0"/>
<defs>
<filter id="filter0_d_364_489" x="0.638672" y="15.0664" width="1260.97" height="135.77" filterUnits="userSpaceOnUse" color-interpolation-filters="sRGB">
<feFlood flood-opacity="0" result="BackgroundImageFix"/>
<feColorMatrix in="SourceAlpha" type="matrix" values="0 0 0 0 0 0 0 0 0 0 0 0 0 0 0 0 0 0 127 0" result="hardAlpha"/>
<feOffset/>
<feGaussianBlur stdDeviation="15"/>
<feComposite in2="hardAlpha" operator="out"/>
<feColorMatrix type="matrix" values="0 0 0 0 0.321569 0 0 0 0 0.647059 0 0 0 0 0.694118 0 0 0 1 0"/>
<feBlend mode="normal" in2="BackgroundImageFix" result="effect1_dropShadow_364_489"/>
<feBlend mode="normal" in="SourceGraphic" in2="effect1_dropShadow_364_489" result="shape"/>
</filter>
</defs>
</svg>
