<svg width="60" height="56" viewBox="0 0 60 56" fill="none" xmlns="http://www.w3.org/2000/svg">
<path d="M0.964844 33.647L9.76398 18.7348C10.0442 18.5681 10.3922 18.5501 10.6859 18.6988L17.257 22.4888C17.7632 23.0792 17.4875 23.7146 17.0672 24.2644H22.5673C22.7842 24.2644 24.7817 23.0701 25.2698 22.8854C27.2764 22.1283 28.0854 23.0476 29.8344 23.8092C31.3122 23.2459 31.9268 22.5835 33.6035 22.9846C35.9129 23.5344 38.3397 24.7827 40.6581 25.337C41.7157 25.5893 42.3077 25.4181 43.2613 24.8863C42.9088 24.1382 42.032 23.336 42.7009 22.5159L49.3036 18.6988C49.7375 18.496 50.2527 18.6087 50.5013 19.0233L59.0021 33.7282C59.088 34.1067 58.9931 34.4808 58.6767 34.7151L52.1237 38.4736C50.8854 38.9062 50.7589 37.5092 50.1216 36.8242L45.2362 39.6363C46.7095 42.2681 45.0735 45.3416 42.0139 45.292C42.1676 47.3651 40.3418 49.1767 38.272 49.0234C38.3443 51.4119 36.3332 53.0974 33.9786 52.7729C33.5357 54.6792 31.615 55.7382 29.7666 54.9631C29.4141 54.8144 28.9486 54.2962 28.7768 54.2466C28.5328 54.1745 27.8413 54.3682 27.4391 54.3457C26.1466 54.2736 24.8269 53.1875 24.7772 51.8536C22.4317 52.3989 20.2714 50.4926 20.3573 48.1221C18.2558 48.3294 16.5159 46.4547 16.6153 44.3907C14.2155 44.5665 12.3626 42.2366 12.9682 39.9337L9.2985 37.721C9.05446 38.2753 8.57992 38.744 7.93818 38.5187C5.93159 37.1712 3.31037 36.1482 1.38061 34.7602C1.19984 34.6295 1.10946 34.4808 0.964844 34.323V33.6426V33.647ZM27.7238 24.7151C27.421 24.6745 27.1408 24.4402 26.8425 24.3951C25.8618 24.2554 23.8282 25.9408 22.4498 26.067C20.3935 26.2518 18.1202 25.8868 16.0459 26.1256L10.3244 35.9139L10.2792 36.2339L13.9353 38.2663C14.1703 38.2212 16.7689 35.3686 17.2977 34.9449C19.7833 32.962 23.2135 34.7106 23.2045 37.8246C25.3376 37.8742 27.1137 39.4786 26.9375 41.6778C28.1441 41.5245 29.0435 42.1149 29.9473 42.8089L31.7008 42.4664C31.633 40.3438 33.3188 38.6584 35.4383 38.7305C35.5061 37.2568 36.1795 36.013 37.4811 35.2874C37.3862 35.1928 37.2958 35.0937 37.2009 35.0035C36.4507 34.287 33.2826 31.8985 32.3968 31.4253C31.7777 31.0964 30.2953 30.9837 29.7304 31.4028C29.1158 31.8625 28.3972 33.8138 27.7283 34.4943C27.4481 34.7827 26.7928 35.0666 26.3951 35.0892C25.889 35.1162 23.9411 34.8548 23.4485 34.6881C22.7435 34.4492 22.1515 33.7282 22.0792 32.9891C22.0159 32.3492 22.974 29.109 23.2452 28.3293C24.0722 25.9589 25.7805 26.1256 27.5792 24.9629C27.6877 24.8908 27.7826 24.9764 27.7238 24.7105V24.7151ZM44.2781 26.5267C43.2613 26.8151 42.2806 27.3874 41.1779 27.3018C40.7937 27.2748 40.2695 27.1035 39.8854 27.0044C37.4042 26.3554 34.9909 25.1567 32.4872 24.6474L25.3964 28.104C24.5829 29.51 24.4473 31.2676 23.8779 32.7908C23.9637 33.1378 25.9793 33.1874 26.3635 33.2595C27.421 31.912 28.0673 29.5777 30.0513 29.3523C31.4929 29.1901 32.5731 29.3929 33.7707 30.1635C36.0439 31.6281 39.4289 34.1608 41.4988 35.9139C41.8694 36.2293 43.7765 38.3023 43.9754 38.2708L49.2675 35.1748L44.2736 26.5267H44.2781ZM20.7685 39.0369C22.4 37.2028 20.2895 35.0125 18.536 36.3014C18.0163 36.6845 15.3092 39.3749 14.9748 39.8751C13.8721 41.52 15.8696 43.4534 17.5192 42.187C18.2694 41.6147 20.1087 39.7715 20.7641 39.0369H20.7685ZM39.0086 36.7611C37.463 36.7611 36.8167 38.415 37.6573 39.6318C37.9646 40.0779 40.744 42.8495 41.1824 43.1244C42.954 44.251 44.7707 42.3312 43.6499 40.6638C43.3246 40.1771 40.6491 37.5182 40.143 37.1532C39.8085 36.9098 39.4289 36.7611 39.0086 36.7611ZM23.1638 39.6633C22.8475 39.7084 22.4272 39.9517 22.165 40.15C21.6544 40.5421 18.8976 43.3001 18.649 43.7688C17.7677 45.4272 19.6116 47.0451 21.1843 46.0717C21.5323 45.8554 24.6778 42.7278 24.8721 42.3988C25.6178 41.128 24.619 39.4651 23.1638 39.6679V39.6633ZM34.9547 40.5736C33.7526 40.7629 33.1335 42.2411 33.7978 43.2551C34.0238 43.5976 37.237 46.7882 37.5534 46.973C39.2391 47.9599 41.0333 46.0176 39.795 44.2871C39.3611 43.6787 37.1783 41.5246 36.5636 41.0649C36.062 40.6908 35.6055 40.47 34.9593 40.5736H34.9547ZM25.306 49.5507C25.7444 49.1587 28.5689 46.306 28.7226 46.0041C29.527 44.4178 27.8052 42.8089 26.2596 43.6607L22.3775 47.5904C21.6318 49.5327 23.7378 50.9613 25.3105 49.5552L25.306 49.5507ZM30.6885 45.9635C32.0172 46.1167 33.1199 47.4416 33.1741 48.7485C33.2103 49.6318 32.5911 49.8031 33.4589 50.4926C35.14 51.8265 37.2461 50.0555 36.2157 48.3069C36.0033 47.9419 33.0747 45.0262 32.6589 44.7287C32.198 44.3997 31.2805 44.0708 30.7879 44.4448C30.5574 44.6206 30.7156 45.639 30.6885 45.9635ZM30.0784 47.694C29.8615 47.712 29.5541 47.8788 29.3689 48.0095C29.0887 48.2032 26.7883 50.5061 26.6573 50.7314C26.0291 51.8401 27.2493 53.0072 28.2887 52.3583C28.5237 52.2096 31.0591 49.6814 31.1766 49.4696C31.6421 48.6494 30.9913 47.6084 30.0784 47.694ZM31.9223 51.4029L30.223 53.0433C31.3574 54.1249 32.7177 52.6197 31.9223 51.4029Z" fill="#52A5B0"/>
<path d="M40.6223 10.9207C40.6223 16.7748 35.8634 21.5202 29.9928 21.5202C24.1222 21.5202 19.3633 16.7748 19.3633 10.9207C19.3633 5.06671 24.1222 0.321289 29.9928 0.321289C35.8634 0.321289 40.6223 5.06671 40.6223 10.9207ZM38.8055 10.9207C38.8055 6.06717 34.8601 2.13294 29.9928 2.13294C25.1254 2.13294 21.1801 6.06717 21.1801 10.9207C21.1801 15.7743 25.1254 19.7085 29.9928 19.7085C34.8601 19.7085 38.8055 15.7743 38.8055 10.9207Z" fill="#52A5B0"/>
<path d="M28.7499 11.8212L33.5403 7.95008C34.5707 7.52647 35.2893 8.54042 34.6476 9.39216C32.876 10.6405 31.24 12.4026 29.482 13.6283C29.0255 13.9483 28.5871 14.2007 28.0584 13.8086C27.5387 12.9208 26.2913 11.7581 25.9027 10.8703C25.6044 10.1808 26.0066 9.52284 26.7568 9.55439C27.507 9.58594 28.3476 11.2218 28.7453 11.8257L28.7499 11.8212Z" fill="#52A5B0"/>
</svg>
