<svg width="48" height="60" viewBox="0 0 48 60" fill="none" xmlns="http://www.w3.org/2000/svg">
<path d="M34.4467 52.5773L32.187 58.9046C31.9023 59.1434 31.5001 59.1479 31.1973 58.9541L25.7062 49.7562L22.1631 49.8554L16.8122 58.9541C16.3874 59.2155 15.8451 59.0894 15.6056 58.6477L13.5628 52.5773L7.43461 53.8752C6.9194 53.9383 6.43585 53.5057 6.43585 52.992L11.2896 44.452C10.1869 43.1677 9.11126 41.8562 8.32038 40.351C3.05084 30.36 8.42433 17.994 19.2843 15.0377C33.8501 11.0674 46.4726 25.9436 40.0415 39.6435C39.2009 41.4281 38.0034 42.9784 36.7154 44.452L41.3703 52.4737C41.7906 53.1181 41.429 53.8212 40.6743 53.8842L34.4421 52.5773H34.4467ZM40.0551 32.086C40.0551 23.2441 32.8694 16.0787 24.0024 16.0787C15.1355 16.0787 7.94976 23.2441 7.94976 32.086C7.94976 40.9279 15.1355 48.0933 24.0024 48.0933C32.8694 48.0933 40.0551 40.9279 40.0551 32.086ZM20.4413 49.3867C17.4901 48.8504 14.8463 47.3948 12.4917 45.6012L8.93053 51.8698L13.9922 50.8153C14.4622 50.7657 14.7243 51.0045 14.9232 51.3966C15.1853 51.9104 16.3332 56.1375 16.5817 56.1285L20.4367 49.3867H20.4413ZM39.0745 51.8698L35.5133 45.6012C33.1632 47.3948 30.5149 48.8504 27.5637 49.3867L31.4187 56.1285C31.6718 56.1375 32.8197 51.9104 33.0773 51.3966C33.2761 51 33.5383 50.7657 34.0083 50.8153L39.0699 51.8698H39.0745Z" fill="#52A5B0"/>
<path d="M26.037 4.75887C26.272 4.90758 29.4401 4.67777 30.1089 4.78142C30.6784 4.87155 30.9947 5.33121 30.8862 5.89453C30.7597 6.55249 27.8312 8.05316 27.3522 8.75619L28.6131 12.6769C28.7035 13.2988 28.0572 13.8486 27.4787 13.5602L23.9491 11.1582C23.1673 11.5187 20.8578 13.6909 20.1528 13.6503C19.719 13.6233 19.2897 13.1141 19.3936 12.6769L20.6545 8.75619C20.6319 8.63 20.4737 8.53539 20.3788 8.44526C19.6738 7.78279 17.7757 6.8544 17.2876 6.20546C16.8493 5.6196 17.1927 4.89409 17.8977 4.78593C18.6027 4.67777 21.7346 4.91209 21.9696 4.76338L23.199 0.959862C25.0835 -1.12668 25.3636 3.71335 26.037 4.76338V4.75887ZM22.878 6.43078C22.2588 6.56147 21.233 6.33164 20.5641 6.43078C20.876 6.97157 22.2769 7.5124 22.4396 8.05319C22.6294 8.6751 21.7888 10.4732 21.8702 10.5723C22.521 10.2569 23.3255 9.22937 24.0621 9.26092C24.7174 9.28796 25.5353 10.2884 26.1409 10.5723C26.2223 10.4687 25.3863 8.6751 25.5716 8.05319C25.7162 7.57099 27.1624 6.94003 27.4471 6.43078H25.1331C24.6134 6.43078 24.2926 4.73184 24.157 4.32174C24.1118 4.18655 24.1886 3.98828 23.9491 4.06038C23.7955 4.10545 23.574 6.27761 22.878 6.42633V6.43078Z" fill="#52A5B0"/>
<path d="M10.4991 13.3173C10.4449 14.2682 12.1623 17.4318 11.516 18.1168C11.4437 18.1934 11.0143 18.3692 10.8968 18.3692C10.1737 18.3872 7.96831 16.1474 7.09608 15.9041C6.70741 15.9176 4.39808 17.9456 3.75634 18.2475C3.06036 18.5765 2.52699 18.1168 2.53151 17.3913L3.77885 13.4075C3.17777 12.7675 0.398425 11.2713 0.204094 10.5773C0.131784 10.3205 0.249304 9.91487 0.448155 9.73911C1.04019 9.21635 4.20818 9.66699 5.13012 9.49574C5.59561 8.45472 5.8397 6.39975 6.41818 5.51647C6.8204 4.90357 7.56158 5.04328 7.89601 5.63815C8.23044 6.23302 8.91289 9.27944 9.17049 9.4552C10.1421 9.7301 12.9893 9.19383 13.6808 9.68955C14.0785 9.97346 14.1688 10.5413 13.8525 10.9243L10.4991 13.3218V13.3173ZM10.594 11.1677H8.28019C7.62941 11.1677 7.32661 8.57638 7.03738 8.80171C6.92439 9.18477 6.45439 11.1677 6.02505 11.1677H3.7111C4.04101 11.776 5.3607 12.1817 5.55955 12.8216C5.78099 13.5336 5.0172 14.4485 5.07595 15.192C5.74933 14.9532 6.3775 14.0023 7.09155 13.9933C7.84176 13.9843 8.46095 14.9397 9.17049 15.1875C9.20212 14.4755 8.46541 13.4706 8.65522 12.8441C8.84504 12.2177 10.1963 11.74 10.5986 11.1631L10.594 11.1677Z" fill="#52A5B0"/>
<path d="M42.8845 9.49446C43.8065 9.66571 46.9746 9.21507 47.5666 9.73783C47.7654 9.91359 47.883 10.3192 47.8107 10.576C47.6073 11.2881 44.8459 12.7663 44.2358 13.4062L45.465 17.7009C45.3295 18.1425 44.8912 18.4986 44.4166 18.3318L40.9187 15.9028C40.0781 16.1687 37.7551 18.4445 37.032 18.3634C36.9552 18.3544 36.553 18.1696 36.4988 18.1155C35.8751 17.4576 37.4976 14.303 37.5427 13.3746L34.1622 10.9186C33.2402 8.53007 37.5969 9.88654 38.8488 9.44941C39.1109 9.27816 39.8069 6.20469 40.1233 5.63236C40.3809 5.16819 40.9096 4.95183 41.3842 5.25377C41.8587 5.55571 42.5862 8.76439 42.889 9.48995L42.8845 9.49446ZM44.2946 11.1664H41.9807C41.5513 11.1664 41.0858 9.18349 40.9683 8.80043C40.6791 8.57511 40.3763 11.1664 39.7255 11.1664H37.4117C37.8274 11.7522 39.1562 12.1894 39.355 12.8474C39.5539 13.5053 38.8036 14.4787 38.8397 15.1908C39.5493 14.9429 40.1639 13.9875 40.9187 13.9965C41.5875 14.0055 42.3061 14.9339 42.9343 15.1953C42.993 14.4517 42.2292 13.5324 42.4507 12.8248C42.645 12.2029 43.9783 11.7973 44.2991 11.1709L44.2946 11.1664Z" fill="#52A5B0"/>
<path d="M36.7839 32.0776C36.7839 39.1168 31.0624 44.8222 24.0032 44.8222C16.944 44.8222 11.2227 39.1168 11.2227 32.0776C11.2227 25.0383 16.944 19.333 24.0032 19.333C31.0624 19.333 36.7839 25.0383 36.7839 32.0776ZM35.1163 32.0821C35.1163 25.9622 30.1405 21.0005 24.0032 21.0005C17.866 21.0005 12.8903 25.9622 12.8903 32.0821C12.8903 38.202 17.866 43.1637 24.0032 43.1637C30.1405 43.1637 35.1163 38.202 35.1163 32.0821Z" fill="#52A5B0"/>
<path d="M25.9013 28.9133H29.7562C30.6329 28.9133 31.5594 29.9994 31.573 30.8647C31.582 31.5181 31.0442 32.0815 31.0352 32.1671C31.0262 32.2978 31.3877 32.8521 31.3606 33.3478C31.3244 34.0553 30.7188 34.4744 30.6917 34.6457C30.642 34.9702 30.8364 35.547 30.737 36.0427C30.6466 36.4889 30.1088 36.8719 30.0817 37.0296C30.0546 37.1738 30.1947 37.5524 30.1766 37.8408C30.1133 38.8323 29.2862 39.4812 28.3372 39.5623C26.7464 39.702 23.2484 39.7291 21.6847 39.5623C21.3277 39.5217 20.8576 39.2469 20.6181 39.2559C20.4283 39.2604 20.0804 39.5082 19.7776 39.5533C18.8059 39.684 16.7361 39.702 16.5327 38.4312C16.7135 36.1103 16.2073 33.6227 16.4017 31.3333C16.596 29.062 18.4398 29.4045 20.1933 29.6118C20.3605 29.035 20.9933 28.6024 21.2147 28.0841C21.7299 26.8808 21.7073 24.5329 22.7061 23.6542C23.7049 22.7754 25.4132 22.9331 26.1905 24.0687C27.2028 25.5469 25.9962 27.3225 25.9013 28.9133ZM21.6893 37.9084H28.3327C28.8614 37.3 27.4017 37.4352 27.578 36.4573C27.7452 35.5379 28.9563 35.8534 29.0873 35.6461C29.2907 34.9611 28.6671 35.2225 28.2649 34.9025C27.6638 34.4293 27.9621 33.546 28.6942 33.4199C29.0558 33.3568 29.6975 33.6002 29.6975 33.0594C27.6593 32.9287 27.5463 31.0629 29.6975 31.108C30.0726 30.6393 29.58 30.5988 29.1642 30.5672C27.8491 30.4681 26.5521 30.779 25.1195 30.5808C23.0812 30.2968 24.8889 26.6375 24.9522 25.4207C24.9884 24.8213 24.0439 24.5419 23.7501 24.9746C23.3298 25.601 23.1309 27.7777 22.7512 28.679C22.3716 29.5803 21.4813 30.3058 21.174 31.2477L21.2599 37.7146C21.2735 37.7687 21.626 37.8994 21.6802 37.9084H21.6893ZM19.4928 31.1621C19.1719 31.2207 18.2049 30.9953 18.0874 31.3559L18.1868 37.9084C18.5076 37.8498 19.4747 38.0752 19.5967 37.7146L19.4973 31.1621H19.4928Z" fill="#52A5B0"/>
</svg>
