<svg width="50" height="51" viewBox="0 0 50 51" fill="none" xmlns="http://www.w3.org/2000/svg">
<path d="M22.8368 4.90831L26.9268 4.93988C27.3471 5.16071 27.3244 5.62485 27.3018 6.03495L35.6988 6.12968L35.9248 6.40903L35.9474 35.7017C36.0107 36.0532 36.8286 36.1839 37.1359 36.3416C46.6853 41.2853 38.2794 55.3549 29.191 49.235L1.06257 49.1853L0.80957 48.9331V6.33696L1.06257 6.08457L9.40083 6.03044C9.36467 5.70146 9.38719 5.04804 9.77586 4.93537C10.5713 4.69652 12.2977 5.08406 13.2015 4.9038L13.3191 4.8182C14.2772 -0.630243 21.942 -0.544645 22.8368 4.9038V4.90831ZM25.9822 6.23783H22.1679C21.3906 6.23783 21.5261 4.91281 21.3228 4.34047C20.2427 1.30305 15.8047 1.37517 14.7878 4.35401C14.6342 4.80917 14.6613 6.23332 14.0286 6.23332H10.725V10.9517L10.8787 11.1048H25.8331L25.9868 10.9517V6.23332L25.9822 6.23783ZM9.40083 7.35545H2.07501V47.9281H27.8081L26.6285 45.6882L4.71423 45.6477C4.40691 45.5486 4.29849 45.2376 4.30753 44.9357V10.3387C4.23522 10.0909 4.54254 9.58167 4.76851 9.58167H9.3963V7.35094L9.40083 7.35545ZM34.6277 7.35545H27.3018V9.58618H31.9296C32.0336 9.58618 32.3861 9.94221 32.3861 10.0413V35.6522C33.1227 35.6342 33.9046 35.3953 34.6231 35.6522V7.35545H34.6277ZM9.40083 10.9066H5.63619V44.3769H26.285C25.6387 40.8077 27.7448 37.3331 31.0665 36.0081V10.9066H27.3018C27.3425 11.9566 27.3652 12.3442 26.2399 12.4344C21.1059 12.8309 15.4567 12.1279 10.264 12.4344C9.28328 12.3217 9.37371 11.7403 9.40083 10.9111V10.9066ZM40.191 43.1105C40.191 39.5638 37.3076 36.6841 33.7464 36.6841C30.1852 36.6841 27.3018 39.5593 27.3018 43.1105C27.3018 46.6617 30.1852 49.5369 33.7464 49.5369C37.3076 49.5369 40.191 46.6617 40.191 43.1105Z" fill="#52A5B0"/>
<path d="M46.1215 15.571V36.5175C46.1215 36.8194 45.3034 36.9592 45.0594 36.9772C44.0697 37.0448 42.1489 37.0808 41.1908 36.9772C40.9784 36.9546 40.3277 36.7383 40.3277 36.522V15.5755H37.7336C37.4172 15.5755 37.1189 14.8499 37.3313 14.566L42.8946 6.11621H43.5589L49.1223 14.566C49.3347 14.8499 49.0365 15.5755 48.7201 15.5755H46.126L46.1215 15.571ZM47.2423 14.2506L43.2245 7.96384L39.2069 14.2506H41.1908C41.2948 14.2506 41.6473 14.6065 41.6473 14.7056V35.5485H44.8018V14.7056C44.8018 14.602 45.1588 14.2506 45.2582 14.2506H47.2423Z" fill="#52A5B0"/>
<path d="M23.2077 15.0845C23.7952 14.9538 26.5657 14.9898 27.2526 15.0619C27.587 15.098 27.9214 15.1656 27.9937 15.5396L28.0164 30.0238C27.9712 30.3979 27.8898 30.5465 27.5147 30.6366C26.9859 30.7628 23.8767 30.7674 23.2937 30.6727C23.0225 30.6322 22.7739 30.4429 22.6473 30.1995L22.6203 15.711C22.6113 15.4225 22.9411 15.1386 23.2077 15.08V15.0845ZM26.6922 16.3824H23.9444V29.3658H26.6922V16.3824Z" fill="#52A5B0"/>
<path d="M20.8708 21.1777C21.0109 21.3084 21.0878 21.705 21.1058 21.9078C21.2821 23.8366 21.2821 27.8023 21.1058 29.7266C21.0561 30.281 20.9522 30.619 20.3421 30.6866C19.4518 30.7903 17.3819 30.7722 16.469 30.6866C15.7911 30.6235 15.6646 30.3711 15.6058 29.7221C15.4251 27.7888 15.4341 23.8411 15.6058 21.9033C15.6601 21.2994 15.7595 21.0921 16.3696 21.0425C17.409 20.9569 19.3072 20.9524 20.3466 21.0425C20.5138 21.056 20.7488 21.056 20.8753 21.1732L20.8708 21.1777ZM19.6732 22.3674H17.0294V29.3661H19.6732V22.3674Z" fill="#52A5B0"/>
<path d="M19.3711 17.7026L9.78111 23.2051C8.99023 23.543 8.53377 22.457 9.20715 22.0199L18.6119 16.5849C18.743 16.4678 18.5442 16.4542 18.4583 16.4317C18.1103 16.3506 17.5725 16.3686 17.3917 15.972C17.2697 15.7106 17.3917 15.233 17.6448 15.1113C17.9657 14.9581 20.248 15.287 20.718 15.3951C21.2513 15.5168 21.5947 15.643 21.4682 16.2829C21.4094 16.5894 20.3473 19.1266 20.1846 19.2663C19.7327 19.6539 19.0413 19.2167 19.0865 18.6895C19.1045 18.5002 19.466 17.8242 19.3711 17.698V17.7026Z" fill="#52A5B0"/>
<path d="M9.17057 23.9086C9.68126 23.7914 12.8357 23.8049 13.4277 23.8815C13.7305 23.922 13.8436 24.0707 14.0289 24.2961V30.2763C13.839 30.5287 13.6356 30.6504 13.3193 30.6865C12.438 30.7901 10.4585 30.7631 9.55013 30.6865C8.93098 30.6324 8.74572 30.5692 8.68697 29.9248C8.57399 28.6809 8.54687 25.7562 8.68697 24.5439C8.72313 24.2195 8.8271 23.9852 9.17057 23.9086ZM12.7589 25.2064H10.0111V29.3659H12.7589V25.2064Z" fill="#52A5B0"/>
<path d="M9.06677 34.9668L23.3342 34.9983C23.9443 35.4489 23.6506 36.2782 22.8778 36.2646H9.45085C8.70516 36.206 8.33916 35.3724 9.06677 34.9668Z" fill="#52A5B0"/>
<path d="M9.17034 38.8203L22.9859 38.7979C23.8762 38.8474 23.8762 40.0687 22.9859 40.1182H9.35107C8.57374 40.1363 8.43821 38.987 9.17034 38.8203Z" fill="#52A5B0"/>
<path d="M36.4311 40.5423C37.0141 40.3665 37.3395 40.7901 37.1181 41.3309L32.7977 45.6392C32.5582 45.7474 32.3547 45.7248 32.1333 45.5941C31.9977 45.5175 30.3798 43.8546 30.33 43.733C30.1854 43.3724 30.4701 42.9038 30.895 42.9669C31.3198 43.03 32.2734 44.4089 32.531 44.3638L36.4311 40.5378V40.5423Z" fill="#52A5B0"/>
<path d="M20.0984 5.53516C20.0984 6.65279 19.19 7.55861 18.0692 7.55861C16.9484 7.55861 16.04 6.65279 16.04 5.53516C16.04 4.41753 16.9484 3.51172 18.0692 3.51172C19.19 3.51172 20.0984 4.41753 20.0984 5.53516ZM18.7607 5.53065C18.7607 5.14309 18.4443 4.83211 18.0602 4.83211C17.676 4.83211 17.3596 5.14759 17.3596 5.53065C17.3596 5.91371 17.676 6.22919 18.0602 6.22919C18.4443 6.22919 18.7607 5.91371 18.7607 5.53065Z" fill="#52A5B0"/>
</svg>
