<svg width="50" height="51" viewBox="0 0 50 51" fill="none" xmlns="http://www.w3.org/2000/svg">
<path d="M18.6162 38.1853L17.0073 39.001V47.5769C16.7994 49.9113 14.2505 51.2858 12.1987 50.0826C11.8552 49.8798 11.7016 49.5959 11.3626 49.4382C9.46903 51.5608 6.06595 50.3755 5.78124 47.5859L5.79028 39.0054C5.74057 38.8026 4.23563 38.5053 4.1814 38.0907V29.7445C2.73973 29.7716 1.23479 28.8657 0.588523 27.5768C-0.107454 26.1843 0.0913986 22.5025 0.42131 20.9477C1.22575 17.1622 4.17234 13.8724 7.89176 12.7503C3.37694 9.73992 4.30793 2.71864 9.59556 1.20444C16.7 -0.823512 20.9752 8.66736 14.9103 12.7503C16.126 13.0973 17.301 13.7327 18.2682 14.5484C23.4428 5.07562 36.2009 2.75464 44.3312 10.0508C52.9405 17.7705 51.2819 31.8806 41.0863 37.2569L41.0275 43.6427C40.6389 44.4989 38.9803 45.9771 38.7227 46.7387C38.56 47.2164 38.7272 47.9464 38.6594 48.4737C38.5374 49.4021 37.6245 50.362 36.689 50.5062C34.583 50.8397 31.7765 50.3079 29.5936 50.5332C28.6084 50.4296 27.6187 49.5373 27.465 48.5594C27.3746 48.0006 27.5554 47.23 27.3882 46.7387C27.1351 45.9952 25.2189 44.2646 25.0562 43.5661L25.0201 37.2569C23.0903 36.27 21.4181 34.8324 20.0262 33.192L18.6207 31.2451V38.1898L18.6162 38.1853ZM16.2073 7.34683C16.2073 4.69697 14.0561 2.5519 11.3988 2.5519C8.7414 2.5519 6.59019 4.69697 6.59019 7.34683C6.59019 9.99669 8.7414 12.1419 11.3988 12.1419C14.0561 12.1419 16.2073 9.99669 16.2073 7.34683ZM33.8553 36.1348H39.9203C49.56 31.1325 51.2593 18.1987 42.9799 10.9972C36.3365 5.22428 26.0188 6.48616 20.8442 13.5164C20.6137 13.8273 19.6194 15.2785 19.5697 15.5398C19.5155 15.8192 19.9674 16.0941 20.1211 16.3014C22.557 19.5506 22.9502 22.7819 22.6338 26.7972C22.4937 28.5503 21.5853 29.42 20.1527 30.2176C20.0578 30.2672 19.99 30.1771 20.0397 30.3709C20.1392 30.7584 21.2148 32.1194 21.5311 32.4844C22.8327 33.9851 24.4732 35.1479 26.1906 36.1348H32.2555L32.1606 34.8774L28.6807 32.2456C25.9375 34.278 22.2678 31.4299 23.7637 28.3159C24.9703 25.7967 28.7575 26.022 29.6704 28.6674C29.9732 29.5417 29.7925 30.1681 29.6931 31.0333L32.2555 32.9351V23.3407H30.85L30.5427 22.3447L29.449 22.6962L26.4843 19.7399L26.8368 18.6493L25.8335 18.2797V14.012L26.8368 13.6426L26.4843 12.5519L29.449 9.59571L30.4884 9.95614L30.9133 8.94668L35.2699 9.00983L35.5637 9.94712L36.5308 9.56413L39.6265 12.5519L39.274 13.6426L40.2141 13.9355L40.2773 18.2797L39.265 18.7034L39.6265 19.7399L36.6619 22.6962L35.5682 22.3447L35.2609 23.3407H33.8553V32.5386L39.0209 27.4371C39.1113 27.2343 38.7001 26.3871 38.6685 25.9905C38.3883 22.6376 42.9483 21.2271 44.5978 24.0752C45.9807 26.4637 44.0916 29.3253 41.3665 28.8927C40.9688 28.8296 40.3994 28.4421 40.1146 28.6314L33.9503 34.7783L33.8553 36.1348ZM34.1446 10.5601H31.9572C31.8578 11.8129 30.8635 12.1689 29.8738 11.4659L28.3553 12.9125C29.0332 14.0391 28.744 14.8323 27.4289 15.1072L27.4469 17.2343C28.7033 17.3334 29.0603 18.3248 28.3553 19.3118L29.806 20.826C30.9359 20.15 31.7313 20.4385 32.007 21.7499L34.1401 21.7318C34.2395 20.479 35.2337 20.123 36.2235 20.826L37.742 19.3794C37.0641 18.2528 37.3533 17.4596 38.6685 17.1847L38.6504 15.0576C37.394 14.9585 37.037 13.967 37.742 12.98L36.2913 11.4659C35.2292 12.1193 34.2982 11.8805 34.1401 10.5601H34.1446ZM13.4054 13.949C12.1219 13.7192 10.7254 13.6335 9.44641 13.949C9.35602 13.9715 9.22046 13.904 9.29729 14.0932C9.37412 14.2825 10.6169 15.702 10.8474 15.9454C10.9468 16.049 11.1999 16.36 11.3355 16.3375L13.4054 13.949ZM8.99448 20.1455C9.03967 19.794 8.90411 19.2668 9.04421 18.9468C9.14816 18.7215 10.2192 17.793 10.1876 17.6083L7.48503 14.5889C4.28986 15.9769 2.00759 19.1991 1.77259 22.6872C1.71384 23.566 1.67317 25.6119 1.86298 26.4051C2.05279 27.1982 2.93858 27.9914 3.75658 28.1176C4.96776 28.3024 8.98997 28.2844 10.2463 28.1402C10.983 28.0545 11.5524 27.3785 11.3536 26.6394C11.2722 26.3375 10.7616 25.7426 10.4497 25.7426H3.38147V24.1428H6.59019V20.1455H8.99448ZM18.6162 28.9378C19.8771 28.9378 20.912 27.9284 21.0249 26.6936C21.1199 25.639 21.0927 23.8589 21.0249 22.7863C20.8035 19.2532 18.4535 15.7426 15.0775 14.5573L10.6938 19.4876L10.5989 20.141H16.2119V32.9351H10.5989V38.5323C12.8133 38.6405 14.9826 38.0546 17.0118 37.2344V18.5412H18.6162V28.9378ZM14.6075 21.7409H8.19457V24.1383H10.6486C11.8643 24.1383 13.0303 25.8373 13.0122 26.9865C12.9986 28.0996 11.8146 29.7355 10.6486 29.7355H8.19457V31.3353H14.6075V21.7409ZM43.4861 25.7426C43.4861 24.8548 42.763 24.1338 41.8726 24.1338C40.9823 24.1338 40.2592 24.8548 40.2592 25.7426C40.2592 26.6304 40.9823 27.3515 41.8726 27.3515C42.763 27.3515 43.4861 26.6304 43.4861 25.7426ZM28.2469 29.74C28.2469 28.8522 27.5238 28.1311 26.6335 28.1311C25.7431 28.1311 25.0201 28.8522 25.0201 29.74C25.0201 30.6278 25.7431 31.3488 26.6335 31.3488C27.5238 31.3488 28.2469 30.6278 28.2469 29.74ZM6.59019 29.74H5.79028V37.2344L8.999 38.2348V32.9351H6.59471V29.7355L6.59019 29.74ZM39.4684 37.7346H26.638V39.3345H39.4684V37.7346ZM7.39012 39.5328V47.6805C7.39012 47.9149 7.83301 48.4828 8.0409 48.6315C9.13458 49.4021 10.4859 48.6855 10.6034 47.3877C10.8022 45.1254 10.4407 42.5792 10.6034 40.2853L10.5808 40.1546L7.38559 39.5418L7.39012 39.5328ZM15.4119 39.5328L12.2168 40.1456L12.1942 40.2763C12.3614 42.5701 11.9953 45.1163 12.1942 47.3786C12.3072 48.6765 13.6584 49.3976 14.7566 48.6225C14.9645 48.4782 15.4074 47.906 15.4074 47.6716V39.5237L15.4119 39.5328ZM39.4684 40.9342H26.638V42.5341H39.4684V40.9342ZM38.6639 44.1339H27.4379C27.7678 44.4539 28.3915 45.6572 28.7937 45.7293L37.1183 45.7383C37.8279 45.6707 38.1849 44.6026 38.6639 44.1339ZM37.0596 47.3291H29.0423C29.0468 47.9465 28.8796 48.6811 29.6162 48.9064C31.7358 48.7983 34.131 49.1227 36.2145 48.9334C37.2268 48.8432 37.0686 48.1448 37.0596 47.3291Z" fill="#52A5B0"/>
<path d="M44.6889 19.5368L44.3184 18.1398L45.7781 17.5449L46.2752 19.0952C46.2662 19.2078 44.8019 19.6179 44.6844 19.5368H44.6889Z" fill="#52A5B0"/>
<path d="M45.0819 22.5424L44.9824 21.0417C45.2265 21.0913 46.528 20.7804 46.5868 20.8434L46.6862 22.5424H45.0819Z" fill="#52A5B0"/>
<path d="M44.0462 14.6565C44.2722 14.6384 44.8416 15.756 44.9817 15.9904L43.6395 16.7384L42.8848 15.5082L44.0507 14.6565H44.0462Z" fill="#52A5B0"/>
<path d="M37.0593 16.1437C37.0593 18.352 35.2651 20.1411 33.0506 20.1411C30.8362 20.1411 29.042 18.352 29.042 16.1437C29.042 13.9355 30.8362 12.1465 33.0506 12.1465C35.2651 12.1465 37.0593 13.9355 37.0593 16.1437ZM35.4549 16.1437C35.4549 14.8233 34.3793 13.7508 33.0552 13.7508C31.731 13.7508 30.6554 14.8233 30.6554 16.1437C30.6554 17.4642 31.731 18.5368 33.0552 18.5368C34.3793 18.5368 35.4549 17.4642 35.4549 16.1437Z" fill="#52A5B0"/>
</svg>
