<svg width="424" height="84" viewBox="0 0 424 84" fill="none" xmlns="http://www.w3.org/2000/svg">
<path fill-rule="evenodd" clip-rule="evenodd" d="M117.114 81.4099H103.048V78.8198C101.852 81.131 98.4253 82.3264 92.8465 82.3264C84.1596 82.3264 79.8161 78.8596 79.8161 71.926V45.0683C79.8161 33.3928 84.5182 27.4156 93.5638 27.575C97.708 27.6547 101.175 32.2372 101.175 31.1215V14.6641C101.175 12.5123 100.258 11.3965 98.4252 11.3965C96.3132 11.3965 95.3171 14.0664 95.3171 19.3264C95.3171 20.2828 95.317 21.6774 95.4764 23.5503C95.596 25.4232 95.7155 23.1917 95.7155 24.148H80.4137V14.5446C80.4137 5.61858 86.7496 1.11575 99.3815 1.11575C111.216 1.11575 117.114 5.77803 117.114 15.1025V81.4099ZM101.215 68.26V40.964C97.947 39.649 95.7155 42 95.7155 44.4307V68.26C95.7155 70.2524 96.6718 71.2884 98.5845 71.2884C100.338 71.2884 101.215 70.2524 101.215 68.26ZM141.023 54.7913H156.922V67.0247C156.922 69.6946 157.839 71.0096 159.672 71.0096C161.505 71.0096 164.454 68.4991 164.454 63.4384C164.454 56.7439 163.537 52.1215 161.186 50.4878C153.057 44.8293 145.884 41.4421 144.171 39.3302C142.457 37.2182 141.621 34.0304 141.621 29.8065V19.167C141.621 8.00948 147.757 2.47057 160.11 2.47057C172.463 2.47057 178.122 7.81019 178.122 18.4895V29.4478H164.653L164.733 24.6262C164.852 15.5806 161.903 14.7439 159.951 14.7439C157.998 14.7439 156.962 16.816 156.962 20.9203C156.962 25.0247 157.401 28.4516 158.277 30.6034C159.154 32.7951 163.975 36.5409 172.862 41.8805C176.528 45.1082 178.361 49.372 178.361 54.7117V66.5863C178.361 77.7439 172.105 83.2828 159.552 83.2828C147 83.2828 141.103 77.9431 141.103 67.2239V54.7514L141.023 54.7913ZM205.975 75.632C204.302 73.5997 203.864 69.1765 203.864 62.8805V1.79322H218.847V15.1025H236.18V24.7856H218.847V65.1916C218.847 70.2922 226.258 74.556 226.258 63V49.4118H240.325V71.0096C240.325 74.9545 233.869 81.2505 229.366 82.2467C222.194 83.8406 211.753 82.6054 205.975 75.5921V75.632ZM303.564 47.2599H282.285V67.463C282.285 69.6945 283.162 70.8102 284.995 70.8102C286.828 70.8102 287.664 69.6945 287.664 67.463V57.1423H303.564V68.1006C303.564 77.0266 297.347 84 284.915 84C272.482 84 266.425 78.0627 266.425 68.7382V15.5408C266.425 6.2163 272.602 1.55402 284.915 1.55402C297.228 1.55402 303.564 6.01712 303.564 14.983V47.2202V47.2599ZM287.664 37.3378V17.9317C287.664 15.7799 286.788 14.6641 284.995 14.6641C283.201 14.6641 282.285 15.7799 282.285 17.9317V37.3378H287.664ZM365.249 34.2695H349.35V15.7799C349.35 13.7875 348.433 12.7515 346.6 12.7515C344.767 12.7515 343.85 13.7078 343.85 15.6603V83.0836H327.951V2.39092H343.85V4.90138C345.962 3.10821 349.23 2.23149 353.693 2.23149C356.841 2.23149 359.591 3.10813 361.822 4.8216C364.093 6.53507 365.249 8.84628 365.249 11.6755V34.3093V34.2695ZM395.972 59.2144C387.643 21.1195 383.539 2.07206 383.539 2.07206C394.577 1.71343 400.036 1.51425 400.036 1.51425C402.587 28.093 403.902 41.3625 403.902 41.3625C406.851 14.9033 408.325 1.71344 408.325 1.71344C419.602 1.47435 423.985 1.35483 423.985 1.35483C414.541 39.8084 411.074 59.0551 411.074 59.0551H410.875V82.0076H395.972V59.2543V59.2144ZM50.0097 80.1347V0H31.6395L25.1046 47.0607L17.5732 0H0V80.1347H9.96206V34.3093L11.3968 34.1897L20.2829 80.1746H29.1689L36.9394 34.1897L38.4137 34.3093V80.1746H50.0494L50.0097 80.1347Z" fill="url(#paint0_linear_88_155)"/>
<defs>
<linearGradient id="paint0_linear_88_155" x1="0" y1="42" x2="423.985" y2="42" gradientUnits="userSpaceOnUse">
<stop stop-color="#999999" stop-opacity="0.1"/>
<stop offset="1" stop-color="white" stop-opacity="0.1"/>
</linearGradient>
</defs>
</svg>
